<svg width="24" height="24" viewBox="-4.5 -4.5 24 24" fill="none" xmlns="http://www.w3.org/2000/svg">
<g id="mingcute:down-line" clip-path="url(#clip0_1_411)">
<g id="Group">
<path id="Vector" fill-rule="evenodd" clip-rule="evenodd" d="M7.91239 9.66245C7.803 9.77181 7.65465 9.83325 7.49998 9.83325C7.3453 9.83325 7.19695 9.77181 7.08756 9.66245L3.78764 6.36254C3.73193 6.30873 3.68749 6.24436 3.65692 6.17319C3.62635 6.10202 3.61025 6.02548 3.60958 5.94802C3.60891 5.87057 3.62367 5.79375 3.653 5.72206C3.68233 5.65037 3.72564 5.58524 3.78041 5.53047C3.83518 5.4757 3.90031 5.43239 3.972 5.40306C4.04369 5.37373 4.12051 5.35897 4.19796 5.35964C4.27541 5.36031 4.35196 5.37641 4.42313 5.40698C4.4943 5.43755 4.55867 5.48199 4.61248 5.5377L7.49998 8.4252L10.3875 5.5377C10.4975 5.43144 10.6448 5.37265 10.7978 5.37398C10.9507 5.37531 11.097 5.43665 11.2052 5.54481C11.3134 5.65296 11.3747 5.79927 11.376 5.95222C11.3774 6.10517 11.3186 6.25252 11.2123 6.36254L7.91239 9.66245Z" fill="#212126"/>
</g>
</g>
<defs>
<clipPath id="clip0_1_411">
<rect width="14" height="14" fill="white" transform="translate(0.5 0.5)"/>
</clipPath>
</defs>
</svg>
