<svg width="17" height="17" viewBox="0 0 17 17" fill="none" xmlns="http://www.w3.org/2000/svg">
<path fill-rule="evenodd" clip-rule="evenodd" d="M15.0804 2.77435C15.2752 2.97447 15.3846 3.24585 15.3846 3.52882C15.3846 3.81179 15.2752 4.08317 15.0804 4.28329L7.29254 12.2819C7.18962 12.3876 7.06743 12.4715 6.93295 12.5287C6.79847 12.5859 6.65433 12.6154 6.50876 12.6154C6.3632 12.6154 6.21906 12.5859 6.08458 12.5287C5.9501 12.4715 5.82791 12.3876 5.72499 12.2819L1.85565 8.30857C1.75642 8.21012 1.67726 8.09237 1.62281 7.96218C1.56835 7.83198 1.53969 7.69195 1.53849 7.55025C1.53729 7.40856 1.56358 7.26804 1.61582 7.13689C1.66807 7.00574 1.74522 6.88659 1.84278 6.78639C1.94033 6.6862 2.05634 6.60696 2.18404 6.5533C2.31173 6.49965 2.44855 6.47264 2.58651 6.47388C2.72447 6.47511 2.86081 6.50455 2.98758 6.56047C3.11434 6.6164 3.22899 6.6977 3.32484 6.79962L6.50842 10.0694L13.6105 2.77435C13.707 2.67518 13.8216 2.59652 13.9477 2.54284C14.0738 2.48917 14.209 2.46155 14.3455 2.46155C14.482 2.46155 14.6171 2.48917 14.7432 2.54284C14.8693 2.59652 14.9839 2.67518 15.0804 2.77435Z" fill="white"/>
</svg>
