<svg width="69" height="68" viewBox="0 0 69 68" fill="none" xmlns="http://www.w3.org/2000/svg">

<path d="M54.7803 44.6933C54.7294 44.5835 54.682 44.4925 54.638 44.4195C53.9093 43.1051 52.5167 41.4917 50.4612 39.5789L50.4178 39.5351L50.3961 39.5136L50.3741 39.4916H50.352C49.4191 38.6009 48.8284 38.0021 48.581 37.6954C48.1283 37.1114 48.0269 36.5202 48.2743 35.9211C48.4491 35.4685 49.1056 34.5127 50.2424 33.0524C50.8404 32.2784 51.3139 31.6581 51.6637 31.1908C54.1859 27.8324 55.2794 25.6863 54.944 24.7518L54.8137 24.5334C54.7261 24.4019 54.5002 24.2816 54.1361 24.1719C53.7712 24.0625 53.3049 24.0443 52.7362 24.1173L46.4385 24.1609C46.3364 24.1247 46.1908 24.128 46.001 24.1719C45.8114 24.2158 45.7166 24.2378 45.7166 24.2378L45.607 24.2927L45.52 24.3586C45.447 24.4021 45.3669 24.4788 45.2793 24.5883C45.1922 24.6975 45.1194 24.8256 45.0612 24.9716C44.3755 26.7383 43.596 28.3809 42.721 29.8993C42.1816 30.8047 41.6862 31.5894 41.2338 32.2538C40.782 32.918 40.4029 33.4073 40.097 33.721C39.7906 34.0349 39.5141 34.2865 39.2658 34.4765C39.0179 34.6666 38.8286 34.7469 38.6976 34.7175C38.5662 34.6881 38.4425 34.659 38.3254 34.6298C38.1215 34.4984 37.9574 34.3195 37.8337 34.0932C37.7095 33.867 37.6258 33.5821 37.5821 33.239C37.5386 32.8956 37.5128 32.6003 37.5055 32.352C37.4987 32.104 37.5018 31.7532 37.5166 31.3006C37.5318 30.8478 37.5386 30.5414 37.5386 30.3807C37.5386 29.8258 37.5494 29.2236 37.5711 28.5738C37.5931 27.9241 37.611 27.4093 37.6259 27.03C37.6408 26.6504 37.6477 26.2487 37.6477 25.8253C37.6477 25.4018 37.6219 25.0697 37.5711 24.8287C37.5208 24.588 37.4437 24.3543 37.342 24.1278C37.2398 23.9015 37.0901 23.7265 36.8938 23.6022C36.697 23.4781 36.4524 23.3796 36.1612 23.3064C35.3885 23.1313 34.4045 23.0365 33.2088 23.0218C30.4974 22.9926 28.7551 23.168 27.9825 23.5476C27.6763 23.708 27.3993 23.9272 27.1516 24.2044C26.8891 24.5258 26.8525 24.7011 27.042 24.73C27.9168 24.8612 28.5362 25.1752 28.9007 25.6716L29.032 25.9347C29.1342 26.1244 29.2362 26.4604 29.3383 26.9422C29.4402 27.4239 29.506 27.9568 29.535 28.5406C29.6078 29.6067 29.6078 30.5192 29.535 31.2783C29.462 32.0378 29.3931 32.629 29.3273 33.0524C29.2615 33.4759 29.1631 33.819 29.032 34.0817C28.9007 34.3446 28.8133 34.5052 28.7695 34.5635C28.7257 34.6218 28.6893 34.6585 28.6603 34.673C28.4708 34.7457 28.2737 34.7827 28.0698 34.7827C27.8655 34.7827 27.6178 34.6804 27.3263 34.4759C27.0349 34.2714 26.7324 33.9905 26.4189 33.6327C26.1054 33.2748 25.7519 32.7747 25.3581 32.1324C24.9647 31.49 24.5564 30.7308 24.1336 29.8547L23.7838 29.2194C23.5652 28.8107 23.2664 28.2156 22.8874 27.4346C22.5081 26.6533 22.1729 25.8975 21.8814 25.1675C21.7649 24.8609 21.5899 24.6274 21.3567 24.4668L21.2472 24.4009C21.1745 24.3426 21.0577 24.2807 20.8975 24.2147C20.737 24.1488 20.5696 24.1016 20.3945 24.0725L14.4027 24.1161C13.7905 24.1161 13.375 24.255 13.1563 24.5325L13.0687 24.6637C13.025 24.7368 13.0029 24.8536 13.0029 25.0143C13.0029 25.1749 13.0467 25.3721 13.1342 25.6055C14.0089 27.6644 14.9601 29.6501 15.9878 31.5628C17.0155 33.4755 17.9086 35.0162 18.6665 36.1836C19.4245 37.3518 20.1972 38.4544 20.9845 39.4908C21.7718 40.5275 22.2929 41.1919 22.5479 41.4838C22.8031 41.7762 23.0037 41.9949 23.1494 42.1408L23.6962 42.6664C24.0461 43.0169 24.5599 43.4366 25.2378 43.9257C25.9159 44.415 26.6665 44.8967 27.4902 45.3717C28.314 45.8458 29.2724 46.2327 30.3659 46.532C31.4593 46.8316 32.5235 46.9518 33.5586 46.8938H36.0734C36.5835 46.8497 36.9699 46.689 37.2325 46.4118L37.3195 46.302C37.378 46.2149 37.4328 46.0795 37.4834 45.8973C37.5345 45.7148 37.56 45.5137 37.56 45.295C37.545 44.6673 37.5927 44.1016 37.7018 43.5979C37.8108 43.0944 37.935 42.7147 38.074 42.459C38.2128 42.2036 38.3695 41.988 38.5439 41.8133C38.7187 41.6381 38.8433 41.5321 38.9163 41.4955C38.9889 41.4588 39.0469 41.4339 39.0907 41.4189C39.4405 41.3022 39.8523 41.4152 40.3265 41.7587C40.8004 42.1018 41.2449 42.5255 41.6606 43.029C42.0761 43.533 42.5754 44.0984 43.1584 44.7261C43.7418 45.3541 44.2519 45.8209 44.6891 46.128L45.1263 46.3908C45.4182 46.5661 45.7973 46.7268 46.2639 46.8727C46.7297 47.0187 47.1377 47.0552 47.4882 46.9822L53.0861 46.8948C53.6397 46.8948 54.0706 46.8029 54.3762 46.6208C54.6824 46.4383 54.8643 46.2372 54.923 46.0185C54.9815 45.7996 54.9846 45.5512 54.9341 45.2735C54.8822 44.9965 54.8311 44.8028 54.7803 44.6933Z" fill="#1F1F1F"/>
</svg>
