<svg width="69" height="68" viewBox="0 0 69 68" fill="none" xmlns="http://www.w3.org/2000/svg">

<path d="M34.4243 46.9021C30.6038 46.7821 26.9707 46.6888 23.3375 46.5488C22.5547 46.5155 21.7585 46.3955 20.9957 46.2156C19.5638 45.8824 18.5736 45.0226 18.0651 43.6164C17.6569 42.4834 17.5097 41.317 17.4027 40.1307C17.1685 37.3449 17.1685 34.559 17.2823 31.7732C17.3492 30.2003 17.3893 28.6141 17.8108 27.0879C18.0651 26.1748 18.3729 25.2818 19.1156 24.622C19.8984 23.9222 20.815 23.5023 21.8588 23.4556C24.7225 23.3157 27.5795 23.1424 30.4432 23.1157C34.2972 23.0757 38.1578 23.1291 42.0118 23.2024C43.6778 23.2357 45.3572 23.3223 47.0099 23.5356C48.522 23.7356 49.6528 24.5753 50.255 26.0415C50.7166 27.1679 50.8906 28.3475 50.991 29.5472C51.2519 32.553 51.2586 35.5587 51.1114 38.5645C51.0378 40.0907 50.9642 41.6236 50.5293 43.1098C50.0342 44.816 48.9837 45.9423 47.2307 46.3289C46.5482 46.4755 45.839 46.5288 45.1431 46.5555C41.5033 46.6821 37.8701 46.7954 34.4243 46.9021ZM30.7243 39.3243C33.7753 37.7514 36.7929 36.1919 39.8707 34.599C36.7996 32.9995 33.782 31.4333 30.7243 29.8404C30.7243 33.0195 30.7243 36.1452 30.7243 39.3243Z" fill="#1F1F1F"/>
</svg>
