<svg width="69" height="68" viewBox="0 0 69 68" fill="none" xmlns="http://www.w3.org/2000/svg">

<path fill-rule="evenodd" clip-rule="evenodd" d="M29.8284 17.5694C20.6979 20.1303 15.2615 29.306 17.5852 38.2334C17.906 39.4644 18.6423 41.3167 19.2222 42.3495L20.2767 44.2273L19.2181 47.3606C18.5656 49.2913 18.3343 50.4274 18.6153 50.3207C18.8657 50.2261 20.2846 49.7589 21.7682 49.2827L24.4654 48.4174L26.6781 49.4089C29.7423 50.7823 32.5192 51.3073 35.4292 51.0636C41.9968 50.5138 47.6961 46.2249 50.1409 39.9929C51.2567 37.148 51.3623 31.6397 50.3564 28.7591C48.6742 23.9441 44.7455 19.8937 40.0273 18.1102C37.2136 17.0466 32.5699 16.8006 29.8284 17.5694ZM29.9277 27.1641C31.1195 29.9083 31.1315 30.1461 30.1391 31.4057C29.1323 32.6837 29.3914 33.4439 31.6012 35.6983C33.3879 37.5213 36.2855 39.2384 37.0684 38.9379C37.305 38.8474 37.8367 38.2687 38.2504 37.652C38.6641 37.035 39.2188 36.5298 39.4835 36.5294C39.7479 36.5287 40.9746 37.0376 42.21 37.6603C44.6763 38.9037 44.9451 39.5283 43.8267 41.4185C42.9264 42.9406 40.7746 43.8175 38.7021 43.507C35.6755 43.054 31.7701 40.8615 29.0338 38.0798C26.3919 35.3941 24.148 31.5604 24.148 29.7326C24.148 27.1799 25.8466 24.886 27.7371 24.886C28.8476 24.886 29.0135 25.0584 29.9277 27.1641Z" fill="#1F1F1F"/>
</svg>
