<svg width="878" height="1033" viewBox="0 0 878 1033" fill="none" xmlns="http://www.w3.org/2000/svg">
<g style="mix-blend-mode:multiply" opacity="0.6">
<path d="M-83.6751 593.13L-144.08 532.275L-144.058 531.864L-10.2867 499.525L2.34509 345.134L2.68713 345.066L63.1115 405.917L50.4503 560.685L-83.6751 593.13Z" fill="#FFE5DA"/>
<path d="M13.1877 691.408L-47.2174 630.553L-47.2022 630.155L86.5859 597.8L99.2079 443.412L99.5572 443.331L159.974 504.194L147.325 658.971L13.1877 691.408Z" fill="#FFE5DA"/>
<path d="M110.048 789.675L49.6353 728.833L49.6696 728.43L183.446 696.067L196.07 541.69L196.41 541.611L256.837 602.472L244.178 757.252L110.048 789.675Z" fill="#FFE5DA"/>
<path d="M206.913 887.963L146.508 827.108L146.532 826.708L280.308 794.344L292.935 639.978L293.285 639.897L353.687 700.741L341.028 855.521L206.913 887.963Z" fill="#FFE5DA"/>
<path d="M303.788 986.25L243.368 925.375L243.393 924.975L377.174 892.633L389.798 738.256L390.145 738.164L450.572 799.025L437.901 953.796L303.788 986.25Z" fill="#FFE5DA"/>
<path d="M400.66 1084.52L340.233 1023.66L340.248 1023.27L474.046 990.908L486.661 836.534L487.01 836.453L547.437 897.314L534.763 1052.07L400.66 1084.52Z" fill="#FFE5DA"/>
<path d="M497.513 1182.81L437.101 1121.96L437.123 1121.55L570.911 1089.2L583.536 934.82L583.885 934.739L644.297 995.581L631.638 1150.36L497.513 1182.81Z" fill="#FFE5DA"/>
<path d="M594.376 1281.08L533.961 1220.23L533.986 1219.83L667.774 1187.47L680.389 1033.1L680.745 1033.01L741.162 1093.87L728.491 1248.64L594.376 1281.08Z" fill="#FFE5DA"/>
</g>
</svg>
