<svg width="1058" height="716" viewBox="0 0 1058 716" fill="none" xmlns="http://www.w3.org/2000/svg">
<mask id="mask0_1_3358" style="mask-type:luminance" maskUnits="userSpaceOnUse" x="0" y="0" width="1062" height="716">
<path d="M1062 0H0V715.335H1062V0Z" fill="white"/>
</mask>
<g mask="url(#mask0_1_3358)">
<path d="M1022.09 320.238H1113.36L1113.61 319.871L1022.09 175.061L1113.61 30.2663L1113.36 29.8994H1022.09L930.363 175.061L1022.09 320.238Z" fill="#FFE5DA"/>
<path d="M876.361 320.238H967.626L967.865 319.871L876.361 175.061L967.865 30.2663L967.626 29.8994H876.361L784.63 175.061L876.361 320.238Z" fill="#FFE5DA"/>
<path d="M730.641 320.238H821.907L822.132 319.871L730.641 175.061L822.132 30.2663L821.907 29.8994H730.641L638.884 175.061L730.641 320.238Z" fill="#FFE5DA"/>
<path d="M824.138 715.331H915.417L676.401 319.871L584.896 175.061L676.401 30.2663L676.175 29.8994H584.896L493.166 175.061L824.138 715.331Z" fill="#FFE5DA"/>
<path d="M439.163 320.238H530.429L530.667 319.871L439.163 175.061L530.667 30.2663L530.429 29.8994H439.163L347.433 175.061L439.163 320.238Z" fill="#FFE5DA"/>
<path d="M293.443 320.238H384.695L384.947 319.871L293.443 175.061L384.947 30.2663L384.695 29.8994H293.443L201.712 175.061L293.443 320.238Z" fill="#FFE5DA"/>
<path d="M147.723 320.238H238.962L239.214 319.871L147.723 175.061L239.214 30.2663L238.962 29.8994H147.723L55.9795 175.061L147.723 320.238Z" fill="#FFE5DA"/>
</g>
</svg>
