<svg width="750" height="992" viewBox="0 0 750 992" fill="none" xmlns="http://www.w3.org/2000/svg">
<path d="M109.876 111.644L42.7111 222.343H0V182.053L42.7111 111.644L0 41.2635V1.0015H42.7111L109.876 111.644Z" fill="#FFE5DA"/>
<path d="M149.406 222.343H82.5951L82.4302 222.061L149.406 111.644L82.4302 1.28413L82.5951 1.0015H149.406L216.571 111.644L149.406 222.343Z" fill="#FFE5DA"/>
<path d="M256.102 222.343H189.29L189.102 222.061L256.102 111.644L189.102 1.28413L189.29 1.0015H256.102L323.266 111.644L256.102 222.343Z" fill="#FFE5DA"/>
<path d="M362.797 222.343H295.962L295.797 222.061L362.797 111.644L295.797 1.28413L295.962 1.0015H362.797L429.938 111.644L362.797 222.343Z" fill="#FFE5DA"/>
<path d="M469.469 222.343H402.658L402.493 222.061L469.469 111.644L402.493 1.28413L402.658 1.0015H469.469L536.634 111.644L469.469 222.343Z" fill="#FFE5DA"/>
<path d="M576.164 222.343H509.353L509.164 222.061L576.164 111.644L509.164 1.28413L509.353 1.0015H576.164L643.305 111.644L576.164 222.343Z" fill="#FFE5DA"/>
<path d="M214.639 991.668H147.828L615.86 222.058L682.836 111.641L615.86 1.28131L616.048 0.998657H682.836L750 111.641L214.639 991.668Z" fill="#FFE5DA"/>
</svg>
