<svg width="829" height="703" viewBox="0 0 829 703" fill="none" xmlns="http://www.w3.org/2000/svg">
<g style="mix-blend-mode:multiply" opacity="0.6">
<path d="M980.792 271.892L1029.53 201.473L1029.41 201.089L889.942 195.032L848.161 47.7863L847.798 47.7624L799.081 118.182L840.962 265.81L980.792 271.892Z" fill="#FFE5DA"/>
<path d="M902.507 387.79L951.233 317.383L951.123 316.999L811.647 310.93L769.866 163.696L769.492 163.682L720.786 234.091L762.667 381.709L902.507 387.79Z" fill="#FFE5DA"/>
<path d="M824.211 503.711L872.917 433.302L872.817 432.908L733.351 426.862L691.56 279.605L691.207 279.604L642.48 350.011L684.371 497.63L824.211 503.711Z" fill="#FFE5DA"/>
<path d="M745.915 619.621L794.622 549.212L794.531 548.829L655.045 542.771L613.265 395.514L612.901 395.501L564.184 465.921L606.065 613.55L745.915 619.621Z" fill="#FFE5DA"/>
<path d="M667.62 735.519L716.336 665.122L716.226 664.738L576.749 658.669L534.969 511.423L534.616 511.411L485.889 581.83L527.779 729.46L667.62 735.519Z" fill="#FFE5DA"/>
<path d="M589.324 851.44L638.031 781.031L637.93 780.647L498.454 774.578L456.673 627.344L456.31 627.331L407.604 697.729L449.494 845.359L589.324 851.44Z" fill="#FFE5DA"/>
</g>
</svg>
