<svg width="1441" height="450" viewBox="0 0 1441 450" fill="none" xmlns="http://www.w3.org/2000/svg">
<rect width="1440" height="450" fill="#FFFBFA"/>
<mask id="mask0_1_2583" style="mask-type:alpha" maskUnits="userSpaceOnUse" x="2" y="0" width="1439" height="450">
<rect x="2" width="1438" height="450" fill="#EFEFEF"/>
</mask>
<g mask="url(#mask0_1_2583)">
<g filter="url(#filter0_f_1_2583)">
<ellipse cx="1227.5" cy="348.169" rx="303.5" ry="179.701" fill="#EA5F24"/>
</g>
<path d="M1196.62 -8.35483L1169.7 -9.0487L1162.19 22.0012C1155.65 23.5948 1149.43 26.0111 1143.67 29.1479L1117.26 11.1025L1097.72 29.6607L1114.38 56.9521C1110.96 62.5605 1108.22 68.6406 1106.29 75.0743L1074.87 81.0039L1074.18 107.908L1105.25 115.443C1106.84 121.973 1109.26 128.191 1112.39 133.982L1094.35 160.385L1112.9 179.903L1140.18 163.271C1145.79 166.679 1151.87 169.423 1158.31 171.341L1164.22 202.759L1191.14 203.453L1198.67 172.382C1205.2 170.801 1211.42 168.387 1217.21 165.262L1243.62 183.307L1263.14 164.755L1246.49 137.456C1249.92 131.849 1252.66 125.774 1254.58 119.329L1285.98 113.393L1286.67 86.4897L1255.62 78.9702C1254.03 72.4285 1251.61 66.2118 1248.48 60.4358L1266.52 34.0317L1247.97 14.4895L1220.68 31.1475C1215.08 27.7189 1208.99 24.9885 1202.54 23.0695L1196.62 -8.35483ZM1236.38 98.6468C1235.59 129.565 1209.88 153.965 1178.99 153.165C1148.06 152.364 1123.66 126.669 1124.46 95.7546C1125.26 64.8414 1150.95 40.4363 1181.88 41.2371C1212.77 42.0329 1237.19 67.7336 1236.38 98.6468Z" fill="#FFE5DA"/>
<path d="M1223.68 98.3165C1223.06 122.216 1203.19 141.073 1179.31 140.455C1155.41 139.836 1136.55 119.976 1137.17 96.0812C1137.79 72.1862 1157.64 53.3247 1181.55 53.9403C1205.43 54.5575 1224.3 74.4257 1223.68 98.3165Z" fill="#FFE5DA"/>
<path d="M1437.86 132.342L1405.87 123.53L1387.69 158.434C1379.4 158.405 1371.24 159.449 1363.42 161.491L1337.18 132.084L1308.32 148.487L1320.15 186.057C1314.4 191.749 1309.32 198.209 1305.11 205.334L1265.77 203.114L1256.96 235.082L1291.89 253.301C1291.86 261.581 1292.9 269.732 1294.94 277.586L1265.54 303.814L1281.94 332.653L1319.49 320.845C1325.2 326.586 1331.65 331.67 1338.79 335.872L1336.55 375.197L1368.54 384.008L1386.75 349.081C1395.03 349.128 1403.18 348.079 1411.03 346.058L1437.26 375.465L1466.11 359.063L1454.29 321.481C1460.05 315.79 1465.12 309.336 1469.34 302.196L1508.64 304.404L1517.45 272.436L1482.55 254.242C1482.59 245.95 1481.53 237.796 1479.5 229.96L1508.9 203.732L1492.5 174.862L1454.93 186.694C1449.24 180.93 1442.78 175.864 1435.62 171.656L1437.86 132.342ZM1447.16 270.282C1438.04 303.398 1403.8 322.835 1370.71 313.72C1337.59 304.595 1318.15 270.38 1327.27 237.259C1336.4 204.147 1370.61 184.702 1403.74 193.826C1436.82 202.945 1456.28 237.175 1447.16 270.282Z" fill="#FFE5DA"/>
<path d="M1368.16 248.523C1365.26 259.049 1371.44 269.93 1381.96 272.83C1392.49 275.729 1403.37 269.548 1406.27 259.022C1409.17 248.495 1402.99 237.614 1392.46 234.714C1381.94 231.811 1371.05 237.996 1368.16 248.523Z" fill="#FFE5DA"/>
<path d="M1429.32 -42.32L1414.9 -47.1628L1405.69 -31.6422C1401.9 -31.8676 1398.14 -31.5912 1394.5 -30.8563L1383.24 -44.9822L1369.61 -38.2039L1374.08 -20.7033C1371.3 -18.2398 1368.82 -15.413 1366.7 -12.2578L1348.76 -14.2669L1343.92 0.142966L1359.44 9.36595C1359.22 13.1546 1359.49 16.9128 1360.23 20.5585L1346.1 31.8212L1352.89 45.4375L1370.37 40.9814C1372.84 43.7521 1375.67 46.2448 1378.83 48.3467L1376.81 66.2918L1391.23 71.1346L1400.45 55.6048C1404.24 55.8375 1408 55.5599 1411.64 54.8327L1422.91 68.9586L1436.53 62.1791L1432.07 44.6755C1434.84 42.2173 1437.33 39.3905 1439.44 36.23L1457.38 38.2356L1462.22 23.8258L1446.7 14.6146C1446.93 10.8188 1446.65 7.05827 1445.92 3.42202L1460.04 -7.84485L1453.26 -21.4737L1435.77 -17.0062C1433.31 -19.7883 1430.48 -22.2726 1427.31 -24.3769L1429.32 -42.32ZM1432.51 21.8783C1427.05 38.1491 1409.43 46.9034 1393.18 41.4422C1376.9 35.9764 1368.14 18.3715 1373.61 2.10066C1379.07 -14.1671 1396.68 -22.9267 1412.95 -17.4609C1429.21 -12.0039 1437.97 5.61055 1432.51 21.8783Z" fill="#FFE5DA"/>
</g>
<defs>
<filter id="filter0_f_1_2583" x="224" y="-531.531" width="2007" height="1759.4" filterUnits="userSpaceOnUse" color-interpolation-filters="sRGB">
<feFlood flood-opacity="0" result="BackgroundImageFix"/>
<feBlend mode="normal" in="SourceGraphic" in2="BackgroundImageFix" result="shape"/>
<feGaussianBlur stdDeviation="350" result="effect1_foregroundBlur_1_2583"/>
</filter>
</defs>
</svg>
