<svg width="49" height="56" viewBox="0 0 49 56" fill="none" xmlns="http://www.w3.org/2000/svg">
<g clip-path="url(#clip0_1_3822)">
<mask id="mask0_1_3822" style="mask-type:luminance" maskUnits="userSpaceOnUse" x="0" y="0" width="49" height="56">
<path d="M49 0H0V56H49V0Z" fill="white"/>
</mask>
<g mask="url(#mask0_1_3822)">
<path fill-rule="evenodd" clip-rule="evenodd" d="M5.70909 29.0445V17.2628L24.497 6.52577V16.2184C27.9326 18.1818 31.3689 20.1458 34.8046 22.1093L40.5136 33.9863V18.8463C37.078 16.8829 33.6418 14.9189 30.206 12.9555V3.2629L24.497 0L0 14V32.3074L5.70909 29.0445ZM34.8053 43.584L24.4975 49.4749L5.70972 38.7377L14.19 33.8914C14.19 29.9641 14.19 26.0366 14.19 22.1097L21.7264 11.2772L8.4809 18.8469C8.4809 22.7743 8.4809 26.7017 8.4809 30.6286L0.000622177 35.4749V42L24.4975 56L40.5143 46.8463L34.8053 43.5835V43.584ZM32.9778 11.3721L43.2854 17.2628V38.7377L34.8053 33.8914C31.3695 35.8548 27.9333 37.8189 24.4975 39.7823L11.2521 38.7377L24.4975 46.3074C27.9333 44.344 31.3695 42.38 34.8053 40.4165L43.2854 45.2628L48.9946 42V14L32.9778 4.8463V11.3715V11.3721Z" fill="#EA5F24"/>
</g>
</g>
<defs>
<clipPath id="clip0_1_3822">
<rect width="49" height="56" fill="white"/>
</clipPath>
</defs>
</svg>
