<svg width="211" height="124" viewBox="0 0 211 124" fill="none" xmlns="http://www.w3.org/2000/svg">
<path d="M0.224121 71.4752V83.4121C0.224121 83.7632 0.516265 84.0558 0.876596 84.0558H69.6999C70.0602 84.0558 70.3524 84.3484 70.3524 84.6995V88.6687C70.3524 89.01 70.625 89.2928 70.9756 89.3123L107.749 91.1068C108.119 91.1263 108.421 90.8435 108.431 90.4826L110.563 4.10575C110.563 4.04724 110.563 3.98872 110.544 3.93021C110.388 3.34507 109.346 0 106.619 0H68.3949C68.054 0 67.7716 0.26331 67.7424 0.604643L65.8531 28.6525C65.6973 31.0028 63.7301 32.8363 61.3441 32.8558C49.979 32.9533 18.9126 33.5385 8.03453 37.2346C7.79106 37.3126 7.63524 37.5272 7.60603 37.7807L4.59678 67.2329C4.56756 67.5645 4.28516 67.8083 3.9443 67.8083C1.88944 67.8083 0.224121 69.4565 0.224121 71.4752Z" fill="url(#paint0_linear_201_1073)"/>
<path style="mix-blend-mode:multiply" opacity="0.43" d="M0.00974819 73.1518L0.214252 84.1428L69.4855 85.7324C69.8458 85.7324 70.138 86.025 70.138 86.376C70.138 86.376 107.457 87.6926 107.466 87.322L110.349 5.77259C110.349 5.71408 110.349 5.65557 110.33 5.59705C110.174 5.01191 109.132 0.837891 106.405 0.837891H69.0667C68.7259 0.837891 67.5475 1.93016 67.5183 2.26174L65.629 30.3096C65.4732 32.6599 63.5059 34.4934 61.12 34.5129C49.7549 34.6104 18.6885 35.1955 7.81044 38.8917C7.56697 38.9697 7.41115 39.1843 7.38194 39.4378L4.37269 68.89C4.34347 69.2216 4.06104 69.4654 3.72018 69.4654C1.66532 69.4654 0 71.1136 0 73.1323L0.00974819 73.1518Z" fill="url(#paint1_linear_201_1073)"/>
<path d="M109.784 34.084C109.784 34.084 116.786 35.0592 117.507 38.219C118.228 41.3788 119.182 60.825 119.182 60.825C119.182 60.825 145.515 56.6998 157.962 77.1115L108.762 76.6141L109.784 34.084Z" fill="url(#paint2_linear_201_1073)"/>
<path d="M3.22362 61.6843L116.533 59.9776C120.497 59.9191 123.35 64.5905 122.172 69.2033L116.572 91.0389L0.224121 84.144V65.4974C0.224121 63.3812 1.56805 61.6648 3.22362 61.6843Z" fill="url(#paint3_linear_201_1073)"/>
<path style="mix-blend-mode:multiply" opacity="0.28" d="M3.19432 65.5176L116.504 64.1035C120.467 64.0547 123.321 67.9362 122.143 71.7591L116.543 89.8693L0.194824 84.1446V68.6774C0.194824 66.9219 1.53875 65.4981 3.19432 65.5078V65.5176Z" fill="url(#paint4_linear_201_1073)"/>
<path d="M71.0825 31.0703L72.9231 53.0814L78.1723 60.5615L100.961 60.2202L100.99 33.0598" fill="url(#paint5_linear_201_1073)"/>
<path d="M64.3142 34.9907V53.3447" stroke="#34373A" stroke-miterlimit="10" stroke-linecap="round"/>
<path d="M80.763 42.7734H76.4584C76.0604 42.7734 75.7378 43.0965 75.7378 43.4951V43.5926C75.7378 43.9912 76.0604 44.3143 76.4584 44.3143H80.763C81.161 44.3143 81.4836 43.9912 81.4836 43.5926V43.4951C81.4836 43.0965 81.161 42.7734 80.763 42.7734Z" fill="#FFE5C8"/>
<path d="M70.5469 3.5205H106.775C108.158 3.5205 109.278 4.7493 109.248 6.23166L108.645 32.5631C108.625 33.353 107.914 33.9479 107.145 33.7919L100.961 32.5826C99.9772 32.3876 98.9741 32.7581 98.3021 33.5578L92.9946 39.9164C92.7316 40.2285 92.3323 40.404 91.9233 40.365L79.4383 39.2922C79.1364 39.263 78.854 39.1362 78.6397 38.9119L67.3916 27.2578C67.1384 26.9945 67.0118 26.6434 67.0313 26.2826L68.307 5.76354C68.3849 4.49573 69.3685 3.51074 70.5469 3.51074V3.5205Z" fill="#ADCEFF" stroke="#5B5B5B" stroke-miterlimit="10"/>
<path d="M68.4531 28.3613L72.9816 24.4798L73.7023 3.52197" stroke="#5B5B5B" stroke-miterlimit="10"/>
<path d="M95.9648 3.52197L98.8378 33.0619" stroke="#5B5B5B" stroke-miterlimit="10"/>
<g style="mix-blend-mode:multiply" opacity="0.36">
<path d="M98.1852 32.3477L91.9622 39.6425L79.6233 38.2381L68.4238 26.428L69.6898 7.55713C69.797 5.93824 71.1215 4.68018 72.7283 4.68018H78.6202L98.195 32.3574L98.1852 32.3477Z" fill="#ADCEFF"/>
</g>
<path style="mix-blend-mode:multiply" opacity="0.43" d="M105.528 65.6836H91.7773C91.1803 65.6836 90.6963 66.1682 90.6963 66.7661V66.9124C90.6963 67.5102 91.1803 67.9949 91.7773 67.9949H105.528C106.125 67.9949 106.609 67.5102 106.609 66.9124V66.7661C106.609 66.1682 106.125 65.6836 105.528 65.6836Z" fill="url(#paint6_linear_201_1073)"/>
<path style="mix-blend-mode:multiply" opacity="0.43" d="M103.386 72.3618H94.0561C93.4591 72.3618 92.9751 72.8465 92.9751 73.4443V73.5906C92.9751 74.1885 93.4591 74.6731 94.0561 74.6731H103.386C103.983 74.6731 104.467 74.1885 104.467 73.5906V73.4443C104.467 72.8465 103.983 72.3618 103.386 72.3618Z" fill="url(#paint7_linear_201_1073)"/>
<path d="M140.422 43.3818L154.68 44.3181" stroke="black" stroke-width="2" stroke-miterlimit="10"/>
<path d="M164.34 43.8506L181.179 86.7708" stroke="black" stroke-width="2" stroke-miterlimit="10"/>
<path d="M117.75 39.763V39.6362C117.75 38.0466 119.017 36.7495 120.584 36.7495H124.967C126.369 36.7495 127.567 37.793 127.772 39.2071L128.911 46.9408C129.106 48.2378 130.128 49.2423 131.414 49.3788L158.984 52.3533C160.221 52.4899 161.224 53.4163 161.467 54.6451C162.899 61.9107 167.798 85.9503 170.641 88.915C173.397 91.792 176.163 91.4409 177.049 91.2263C177.293 91.1678 177.536 91.1483 177.789 91.1581L180.088 91.2653C181.422 91.3239 182.532 92.3186 182.756 93.6644L183.068 95.5369C183.34 97.1753 182.201 98.7162 180.575 98.8917C175.793 99.3988 166.746 99.8474 164.652 96.3171C162.178 92.1235 156.033 81.3667 154.397 78.4897C154.124 78.0216 153.735 77.6413 153.267 77.3877L119.26 59.2092C118.325 58.7119 117.741 57.7269 117.741 56.6541V39.763H117.75Z" fill="url(#paint8_linear_201_1073)"/>
<path d="M127.781 39.2563L141.26 41.3824V45.7514H128.736L127.781 39.2563Z" fill="#AD762D"/>
<path d="M154.017 43.139V51.7211L160.844 53.3595L161.068 45.7624L166.093 44.2703L165.188 41.013C164.798 39.6184 163.357 38.8187 161.993 39.2381L155.205 41.3446C154.436 41.5786 153.949 42.3296 154.017 43.139Z" fill="#AD762D"/>
<path d="M200.412 63.3945L191.102 65.579C190.8 65.6473 190.547 65.8521 190.411 66.1349L179.903 87.834C179.728 88.1948 179.776 88.6239 180.02 88.936L195.066 108.294C195.222 108.49 195.436 108.626 195.679 108.675L209.781 111.444C210.726 111.63 211.378 110.499 210.755 109.748L206.752 104.949C206.626 104.793 206.538 104.608 206.519 104.403L201.669 64.2917C201.591 63.6773 201.016 63.2677 200.422 63.4042L200.412 63.3945Z" fill="url(#paint9_linear_201_1073)"/>
<path d="M177.536 90.799L178.218 85.2987C178.432 83.6115 180.467 82.8021 181.685 83.9334L192.933 94.3587C194.238 95.568 193.381 97.811 191.57 97.9475L181.198 98.7277C180.302 98.796 179.484 98.2694 179.192 97.4404L177.838 93.6175C177.517 92.7203 177.419 91.7548 177.536 90.799Z" fill="url(#paint10_linear_201_1073)"/>
<path d="M187.294 93.9473C187.294 95.5077 186.048 96.7755 184.509 96.7755C182.97 96.7755 181.724 95.5077 181.724 93.9473C181.724 92.387 182.97 91.1191 184.509 91.1191C186.048 91.1191 187.294 92.387 187.294 93.9473Z" fill="#ADADAD"/>
<path d="M63.2758 70.0541L64.4244 68.9267C64.7515 68.6068 65.2383 68.5001 65.6643 68.6677L69.9849 70.3055C70.3804 70.4578 70.6695 70.8082 70.738 71.2272L70.9053 72.2022C71.0422 73.0173 71.9246 73.4515 72.6397 73.0554L73.6209 72.5145C74.0165 72.2936 74.5033 72.3241 74.8684 72.5831L78.2762 75.0054C78.6794 75.2873 78.862 75.79 78.7479 76.2775L78.4892 77.3668C78.3067 78.1209 78.8772 78.8522 79.6455 78.8522H81.2124C81.6004 78.8522 81.9655 79.0427 82.1861 79.3702L84.0193 82.0592C84.2856 82.4476 84.3008 82.9504 84.065 83.3617L83.5325 84.2758C83.1217 84.9843 83.5097 85.8984 84.3084 86.0659L85.1147 86.2411C85.5711 86.3402 85.921 86.6982 86.0275 87.1552L86.9327 91.2306C87.024 91.6419 86.8946 92.0685 86.598 92.3655L86.1188 92.8302C85.5635 93.371 85.6548 94.3004 86.309 94.7193L86.5904 94.9022C86.9707 95.1459 87.1837 95.5877 87.1381 96.0372L86.7045 100.493C86.6589 100.988 86.3165 101.4 85.8449 101.537L85.6319 101.598C84.8637 101.819 84.5214 102.725 84.955 103.411L85.495 104.264C85.6776 104.553 85.7308 104.919 85.6319 105.254L84.6278 108.758C84.4909 109.231 84.0878 109.566 83.6085 109.619L82.7262 109.71C81.9807 109.787 81.4939 110.533 81.7145 111.264L81.9883 112.186C82.1252 112.636 81.9883 113.115 81.6536 113.428L77.797 116.977C77.3787 117.358 76.7549 117.396 76.3061 117.061L76.1844 116.97C75.4618 116.437 74.45 116.871 74.3131 117.762L74.1838 118.608C74.123 119.011 73.8719 119.354 73.5068 119.522L68.8211 121.716C68.3418 121.944 67.7713 121.815 67.429 121.411C66.8433 120.718 65.7327 120.916 65.4209 121.776L65.2916 122.134C65.1318 122.576 64.7287 122.881 64.2646 122.911L59.054 123.277C58.59 123.308 58.1564 123.064 57.9358 122.66L57.6392 122.112C57.236 121.365 56.2091 121.274 55.6766 121.936L55.0909 122.668C54.7714 123.064 54.239 123.216 53.7598 123.041L49.2946 121.38C48.861 121.22 48.5567 120.817 48.5187 120.352L48.4502 119.575C48.3742 118.714 47.4538 118.211 46.7083 118.623L45.9705 119.027C45.5141 119.278 44.9588 119.194 44.586 118.836L41.0109 115.363C40.6838 115.043 40.5621 114.563 40.699 114.129L40.9881 113.192C41.2543 112.331 40.5316 111.485 39.6569 111.638L39.0635 111.744C38.5539 111.836 38.0519 111.584 37.8084 111.12L35.4199 106.511C35.2145 106.115 35.245 105.635 35.496 105.269L36.2415 104.173C36.7055 103.487 36.3632 102.535 35.5644 102.322L34.3322 101.994C33.8453 101.864 33.4878 101.43 33.4498 100.92L33.1151 96.2581C33.077 95.7553 33.3509 95.2906 33.7997 95.0774L34.7734 94.6203C35.5188 94.2699 35.6938 93.2644 35.1157 92.6779L33.9062 91.4515C33.6095 91.1544 33.4954 90.7126 33.5943 90.3012L34.8342 85.3347C34.9483 84.8852 35.2982 84.5424 35.747 84.451L37.6335 84.0549C38.4702 83.8797 38.8582 82.8895 38.3637 82.181L37.6335 81.1298C37.3064 80.6652 37.352 80.0329 37.7324 79.614L40.5621 76.5365C40.8359 76.2394 41.2391 76.1023 41.627 76.1709L43.5059 76.4984C44.3046 76.6355 44.9968 75.9424 44.8751 75.1273L44.6773 73.7943C44.6013 73.2763 44.8599 72.7659 45.3239 72.5374L49.538 70.4045C49.9108 70.214 50.3443 70.2369 50.6942 70.4654L51.8733 71.2196C52.5198 71.6309 53.3794 71.3262 53.6304 70.5873L53.9804 69.5361C54.1249 69.1095 54.49 68.7972 54.9312 68.7287L59.6626 68.0126C60.1798 67.9364 60.6895 68.2107 60.9101 68.6906L61.3817 69.7189C61.724 70.4654 62.6977 70.6482 63.2834 70.0769L63.2758 70.0541Z" fill="url(#paint11_radial_201_1073)"/>
<path opacity="0.06" d="M62.6444 74.1966L63.6257 73.2444C63.9071 72.9702 64.3179 72.8864 64.683 73.0235L68.3723 74.4099C68.707 74.5394 68.958 74.8365 69.0189 75.1945L69.1634 76.0248C69.2775 76.7103 70.0382 77.0836 70.6467 76.7484L71.4834 76.2914C71.8181 76.1086 72.2365 76.1314 72.5484 76.3523L75.4618 78.4014C75.8041 78.6376 75.9638 79.0641 75.8649 79.4755L75.6443 80.3972C75.4922 81.0371 75.9714 81.6541 76.6256 81.6541H77.9644C78.2991 81.6541 78.611 81.8216 78.7935 82.0959L80.3605 84.3659C80.5887 84.6934 80.6039 85.12 80.3985 85.4628L79.9421 86.2398C79.5922 86.8415 79.9269 87.6109 80.6039 87.7556L81.2885 87.9004C81.6765 87.9841 81.9807 88.2812 82.0644 88.6697L82.8327 92.1128C82.9087 92.4632 82.8022 92.8212 82.5436 93.0726L82.1329 93.4687C81.6612 93.9258 81.7373 94.7103 82.2926 95.0607L82.5284 95.2131C82.8555 95.4188 83.0304 95.792 82.9924 96.1729L82.6197 99.9359C82.5817 100.355 82.285 100.705 81.8818 100.812L81.6993 100.865C81.0451 101.048 80.7484 101.817 81.1212 102.396L81.5852 103.12C81.7449 103.364 81.7829 103.668 81.7069 103.95L80.8473 106.913C80.7332 107.31 80.3909 107.599 79.9802 107.645L79.2271 107.721C78.5957 107.789 78.1774 108.422 78.3599 109.031L78.5957 109.808C78.7098 110.181 78.5957 110.593 78.3067 110.859L75.013 113.861C74.6554 114.188 74.123 114.211 73.735 113.929L73.6362 113.853C73.02 113.404 72.1528 113.769 72.0387 114.523L71.9322 115.232C71.879 115.567 71.666 115.856 71.3541 116.001L67.353 117.852C66.9422 118.043 66.4554 117.936 66.1587 117.593C65.6567 117.007 64.7135 117.174 64.4396 117.905L64.3255 118.203C64.1886 118.576 63.8463 118.835 63.4431 118.865L58.9932 119.178C58.5976 119.208 58.2249 119.002 58.0347 118.652L57.7837 118.187C57.4338 117.555 56.5666 117.479 56.1102 118.035L55.6082 118.652C55.3344 118.987 54.878 119.117 54.4748 118.964L50.6638 117.563C50.2911 117.426 50.0401 117.09 50.002 116.694L49.9488 116.039C49.8879 115.308 49.0968 114.881 48.4579 115.232L47.8265 115.574C47.4386 115.78 46.967 115.719 46.6475 115.415L43.5972 112.482C43.3157 112.215 43.2168 111.811 43.3309 111.438L43.582 110.646C43.8102 109.922 43.194 109.206 42.4409 109.336L41.9389 109.42C41.5053 109.496 41.0717 109.282 40.874 108.894L38.8354 105.001C38.6604 104.666 38.6832 104.263 38.8962 103.95L39.5276 103.029C39.9231 102.45 39.6265 101.65 38.9495 101.467L37.8997 101.185C37.4814 101.071 37.1771 100.713 37.1467 100.279L36.8576 96.3405C36.8272 95.9215 37.063 95.5178 37.4433 95.3426L38.2725 94.9541C38.9114 94.657 39.0636 93.8115 38.5615 93.3087L37.5346 92.2728C37.2836 92.0214 37.1847 91.6481 37.2684 91.3053L38.3257 87.1081C38.4246 86.7273 38.7213 86.4378 39.1016 86.3616L40.7142 86.0265C41.4293 85.8741 41.7563 85.0438 41.338 84.442L40.7142 83.5584C40.4404 83.1623 40.4708 82.6291 40.7979 82.2787L43.2168 79.6735C43.4526 79.4222 43.7949 79.3079 44.1296 79.3612L45.7347 79.6354C46.4193 79.7497 47.0126 79.1632 46.9061 78.4776L46.7387 77.3502C46.6703 76.916 46.8909 76.4818 47.2864 76.2838L50.8844 74.4861C51.2039 74.3261 51.5766 74.349 51.8733 74.5318L52.8774 75.164C53.4327 75.5144 54.1629 75.2478 54.3759 74.6308L54.6726 73.7395C54.7943 73.3815 55.1062 73.1149 55.4789 73.0616L59.5181 72.4522C59.9593 72.3836 60.3928 72.6198 60.583 73.0235L60.9862 73.8919C61.2828 74.5241 62.1043 74.6765 62.6064 74.189L62.6444 74.1966Z" fill="url(#paint12_radial_201_1073)"/>
<path d="M60.6894 105.339C65.8399 105.339 70.0152 101.1 70.0152 95.8703C70.0152 90.641 65.8399 86.4019 60.6894 86.4019C55.5388 86.4019 51.3635 90.641 51.3635 95.8703C51.3635 101.1 55.5388 105.339 60.6894 105.339Z" fill="#A56235" stroke="#DD8B52" stroke-miterlimit="10"/>
<path d="M64.6069 95.8699C64.6069 98.0637 62.8574 99.8462 60.6894 99.8462C58.5215 99.8462 56.772 98.0637 56.772 95.8699C56.772 93.676 58.5215 91.8936 60.6894 91.8936C62.8574 91.8936 64.6069 93.676 64.6069 95.8699Z" fill="#C97C47"/>
<path d="M129.633 70.1188L130.777 68.9737C131.102 68.6478 131.586 68.5454 132.013 68.7037L136.318 70.3609C136.708 70.5098 136.997 70.8729 137.071 71.3012L137.238 72.2881C137.378 73.1167 138.261 73.5543 138.968 73.1539L139.944 72.6046C140.334 72.3812 140.818 72.4091 141.19 72.6791L144.592 75.137C144.992 75.4256 145.178 75.9377 145.066 76.4218L144.806 77.5204C144.63 78.2838 145.187 79.0286 145.959 79.0286H147.521C147.911 79.0286 148.274 79.2241 148.497 79.55L150.329 82.2685C150.589 82.6596 150.608 83.1716 150.375 83.5813L149.845 84.5123C149.436 85.2292 149.827 86.1509 150.617 86.3278L151.416 86.5046C151.872 86.607 152.225 86.9608 152.327 87.4263L153.229 91.5507C153.322 91.9697 153.192 92.4073 152.895 92.6959L152.42 93.1707C151.863 93.72 151.956 94.6603 152.606 95.0793L152.885 95.2562C153.266 95.4982 153.471 95.9451 153.434 96.4106L152.997 100.926C152.95 101.429 152.606 101.848 152.142 101.978L151.928 102.043C151.165 102.267 150.821 103.188 151.249 103.877L151.788 104.743C151.974 105.041 152.021 105.404 151.928 105.739L150.924 109.287C150.793 109.761 150.384 110.106 149.91 110.162L149.027 110.255C148.283 110.339 147.8 111.093 148.014 111.828L148.293 112.759C148.423 113.215 148.293 113.7 147.958 114.016L144.109 117.61C143.691 118.001 143.068 118.029 142.621 117.694L142.5 117.6C141.785 117.06 140.771 117.498 140.632 118.401L140.502 119.258C140.446 119.667 140.186 120.012 139.823 120.179L135.147 122.404C134.663 122.637 134.096 122.507 133.752 122.097C133.166 121.399 132.06 121.595 131.744 122.47L131.614 122.833C131.456 123.28 131.047 123.587 130.591 123.624L125.385 123.997C124.929 124.034 124.492 123.782 124.269 123.373L123.971 122.823C123.562 122.069 122.549 121.976 122.019 122.647L121.433 123.382C121.117 123.782 120.578 123.941 120.104 123.754L115.641 122.079C115.214 121.92 114.907 121.511 114.87 121.036L114.805 120.245C114.73 119.369 113.81 118.857 113.066 119.276L112.322 119.686C111.867 119.937 111.309 119.863 110.946 119.49L107.376 115.981C107.051 115.655 106.93 115.171 107.069 114.733L107.358 113.783C107.627 112.908 106.902 112.061 106.028 112.21L105.442 112.312C104.94 112.405 104.429 112.145 104.197 111.679L101.807 107.015C101.603 106.615 101.631 106.13 101.882 105.758L102.625 104.65C103.09 103.952 102.746 102.993 101.956 102.779L100.729 102.444C100.236 102.313 99.8828 101.876 99.8457 101.354L99.511 96.6341C99.4738 96.1313 99.7434 95.6472 100.19 95.4424L101.157 94.9769C101.9 94.6231 102.077 93.6083 101.491 93.0031L100.283 91.7649C99.9851 91.4576 99.8736 91.0201 99.9758 90.6011L101.212 85.5736C101.324 85.1174 101.677 84.773 102.123 84.6799L104.001 84.2795C104.838 84.1026 105.219 83.0971 104.727 82.3803L104.001 81.3189C103.676 80.8441 103.723 80.2017 104.104 79.7827L106.93 76.6638C107.2 76.3659 107.599 76.2263 107.999 76.2914L109.877 76.6173C110.677 76.7569 111.365 76.0494 111.244 75.2301L111.049 73.8801C110.974 73.3587 111.235 72.8374 111.69 72.6046L115.892 70.4447C116.264 70.2585 116.701 70.2771 117.045 70.5005L118.217 71.264C118.867 71.6829 119.723 71.3664 119.964 70.6216L120.318 69.5602C120.457 69.1226 120.829 68.8154 121.266 68.7409L125.989 68.0147C126.51 67.9309 127.012 68.2102 127.235 68.7037L127.709 69.7464C128.053 70.5005 129.02 70.6867 129.606 70.1095L129.633 70.1188Z" fill="url(#paint13_radial_201_1073)"/>
<path opacity="0.06" d="M128.992 74.3055L129.968 73.3373C130.247 73.058 130.656 72.9742 131.028 73.1138L134.71 74.5104C135.044 74.6407 135.295 74.9386 135.351 75.3017L135.49 76.1396C135.611 76.8379 136.364 77.2103 136.969 76.8658L137.805 76.4003C138.14 76.2141 138.559 76.2327 138.865 76.4562L141.766 78.5323C142.11 78.7744 142.268 79.2026 142.166 79.6216L141.943 80.5526C141.794 81.2043 142.268 81.8281 142.928 81.8281H144.267C144.602 81.8281 144.908 81.9957 145.094 82.275L146.656 84.5746C146.879 84.9098 146.898 85.338 146.693 85.6825L146.238 86.4646C145.885 87.0697 146.219 87.8518 146.898 88.0007L147.586 88.1497C147.976 88.2335 148.274 88.5407 148.358 88.9317L149.129 92.4137C149.204 92.7675 149.101 93.1306 148.841 93.382L148.432 93.7823C147.958 94.2478 148.032 95.0392 148.59 95.393L148.832 95.5419C149.157 95.7467 149.334 96.1285 149.297 96.5102L148.925 100.318C148.888 100.737 148.59 101.091 148.19 101.212L148.004 101.268C147.354 101.454 147.056 102.236 147.428 102.813L147.883 103.539C148.042 103.791 148.088 104.098 148.004 104.387L147.149 107.384C147.037 107.785 146.693 108.073 146.284 108.12L145.531 108.204C144.899 108.269 144.481 108.911 144.667 109.526L144.899 110.308C145.011 110.69 144.899 111.099 144.611 111.369L141.329 114.404C140.976 114.73 140.446 114.758 140.055 114.479L139.953 114.404C139.339 113.948 138.475 114.32 138.363 115.084L138.252 115.801C138.205 116.145 137.982 116.434 137.675 116.583L133.687 118.463C133.278 118.659 132.794 118.547 132.497 118.203C131.995 117.607 131.056 117.784 130.786 118.519L130.675 118.827C130.535 119.208 130.191 119.469 129.801 119.497L125.357 119.813C124.966 119.841 124.594 119.637 124.399 119.283L124.148 118.817C123.804 118.175 122.93 118.1 122.475 118.668L121.973 119.292C121.703 119.637 121.247 119.758 120.838 119.609L117.036 118.193C116.664 118.054 116.413 117.709 116.376 117.318L116.32 116.657C116.255 115.922 115.474 115.484 114.832 115.838L114.2 116.182C113.819 116.397 113.336 116.331 113.02 116.024L109.97 113.054C109.691 112.784 109.589 112.375 109.71 112.002L109.961 111.202C110.193 110.466 109.57 109.74 108.827 109.88L108.325 109.973C107.897 110.047 107.46 109.833 107.255 109.442L105.219 105.504C105.043 105.169 105.071 104.759 105.284 104.442L105.917 103.502C106.316 102.916 106.019 102.106 105.34 101.919L104.29 101.64C103.871 101.528 103.574 101.156 103.537 100.718L103.248 96.7336C103.22 96.3054 103.453 95.905 103.834 95.7188L104.662 95.3278C105.303 95.0299 105.452 94.1733 104.95 93.6613L103.918 92.6185C103.667 92.3579 103.564 91.9855 103.648 91.641L104.708 87.3956C104.801 87.0138 105.108 86.7159 105.48 86.6414L107.088 86.3063C107.804 86.1573 108.129 85.3101 107.711 84.7049L107.088 83.8112C106.809 83.4108 106.846 82.8708 107.172 82.5171L109.589 79.8823C109.821 79.6309 110.165 79.5099 110.5 79.5657L112.099 79.8451C112.778 79.9661 113.373 79.3702 113.271 78.672L113.103 77.5361C113.038 77.0893 113.261 76.661 113.652 76.4562L117.24 74.6314C117.557 74.4731 117.928 74.4917 118.226 74.6779L119.23 75.3203C119.788 75.6741 120.513 75.4041 120.727 74.7803L121.024 73.8773C121.145 73.5142 121.461 73.2442 121.833 73.1883L125.868 72.5738C126.314 72.5087 126.742 72.7414 126.937 73.1511L127.337 74.0262C127.635 74.6686 128.453 74.8176 128.955 74.3335L128.992 74.3055Z" fill="url(#paint14_radial_201_1073)"/>
<path d="M127.049 105.841C132.189 105.841 136.355 101.548 136.355 96.252C136.355 90.9559 132.189 86.6626 127.049 86.6626C121.909 86.6626 117.742 90.9559 117.742 96.252C117.742 101.548 121.909 105.841 127.049 105.841Z" fill="#A56235" stroke="#DD8B52" stroke-miterlimit="10"/>
<path d="M130.954 96.2534C130.954 98.4785 129.206 100.275 127.049 100.275C124.892 100.275 123.144 98.4692 123.144 96.2534C123.144 94.0376 124.892 92.2314 127.049 92.2314C129.206 92.2314 130.954 94.0376 130.954 96.2534Z" fill="#C97C47"/>
<path d="M36.4907 42.4995H15.124V55.597H36.4907V42.4995Z" fill="black" stroke="#4C4C4C" stroke-width="0.5" stroke-miterlimit="10"/>
<path d="M16.1074 42.499V55.5965" stroke="#4C4C4C" stroke-width="0.5" stroke-miterlimit="10"/>
<path d="M17.0327 42.5562V55.6536" stroke="#4C4C4C" stroke-width="0.5" stroke-miterlimit="10"/>
<path d="M17.9385 42.5864V55.6839" stroke="#4C4C4C" stroke-width="0.5" stroke-miterlimit="10"/>
<path d="M18.8926 42.6855V55.783" stroke="#4C4C4C" stroke-width="0.5" stroke-miterlimit="10"/>
<path d="M19.8081 42.7734V55.8709" stroke="#4C4C4C" stroke-width="0.5" stroke-miterlimit="10"/>
<path d="M20.7139 42.6855V55.6855" stroke="#4C4C4C" stroke-width="0.5" stroke-miterlimit="10"/>
<path d="M21.6392 42.7734V55.8709" stroke="#4C4C4C" stroke-width="0.5" stroke-miterlimit="10"/>
<path d="M22.6323 42.6855V55.783" stroke="#4C4C4C" stroke-width="0.5" stroke-miterlimit="10"/>
<path d="M23.6064 42.5864V55.8887" stroke="#4C4C4C" stroke-width="0.5" stroke-miterlimit="10"/>
<path d="M24.668 42.7734V55.8709" stroke="#4C4C4C" stroke-width="0.5" stroke-miterlimit="10"/>
<path d="M25.6416 42.6362V55.7337" stroke="#4C4C4C" stroke-width="0.5" stroke-miterlimit="10"/>
<path d="M26.6057 42.6553V55.7527" stroke="#4C4C4C" stroke-width="0.5" stroke-miterlimit="10"/>
<path d="M27.5115 42.7124V55.8099" stroke="#4C4C4C" stroke-width="0.5" stroke-miterlimit="10"/>
<path d="M28.4268 42.6055V55.7029" stroke="#4C4C4C" stroke-width="0.5" stroke-miterlimit="10"/>
<path d="M29.3228 42.6245V55.7122" stroke="#4C4C4C" stroke-width="0.5" stroke-miterlimit="10"/>
<path d="M30.2188 42.6172V55.7146" stroke="#4C4C4C" stroke-width="0.5" stroke-miterlimit="10"/>
<path d="M31.0952 42.6172V55.7146" stroke="#4C4C4C" stroke-width="0.5" stroke-miterlimit="10"/>
<path d="M31.9521 42.6362V55.7337" stroke="#4C4C4C" stroke-width="0.5" stroke-miterlimit="10"/>
<path d="M32.897 42.6172V55.7146" stroke="#4C4C4C" stroke-width="0.5" stroke-miterlimit="10"/>
<path d="M33.793 42.5864V55.6839" stroke="#4C4C4C" stroke-width="0.5" stroke-miterlimit="10"/>
<path d="M34.7083 42.5864V55.6839" stroke="#4C4C4C" stroke-width="0.5" stroke-miterlimit="10"/>
<path d="M35.5654 42.6855V55.783" stroke="#4C4C4C" stroke-width="0.5" stroke-miterlimit="10"/>
<path d="M42.2269 33.5401V15.3032L38.458 11.6655H49.414L46.3561 14.9423L46.3658 33.3158L42.2269 33.5401Z" fill="#4C4C4C"/>
<path d="M49.4043 7.83301H38.458V11.2951H49.4043V7.83301Z" fill="#4C4C4C"/>
<defs>
<linearGradient id="paint0_linear_201_1073" x1="56.0365" y1="6.68038" x2="53.7805" y2="115.566" gradientUnits="userSpaceOnUse">
<stop offset="0.41" stop-color="#C9933D"/>
<stop offset="0.47" stop-color="#C5903B"/>
<stop offset="0.53" stop-color="#BA8838"/>
<stop offset="0.59" stop-color="#A77A32"/>
<stop offset="0.64" stop-color="#8D672A"/>
<stop offset="0.7" stop-color="#6B4E20"/>
<stop offset="0.75" stop-color="#423014"/>
<stop offset="0.8" stop-color="#120D05"/>
<stop offset="0.82"/>
</linearGradient>
<linearGradient id="paint1_linear_201_1073" x1="55.6468" y1="16.8611" x2="53.508" y2="120.363" gradientUnits="userSpaceOnUse">
<stop stop-color="#C9933D"/>
<stop offset="0.07" stop-color="#C38F3B"/>
<stop offset="0.16" stop-color="#B48436"/>
<stop offset="0.26" stop-color="#9C722F"/>
<stop offset="0.36" stop-color="#795924"/>
<stop offset="0.47" stop-color="#4D3817"/>
<stop offset="0.58" stop-color="#181107"/>
<stop offset="0.63"/>
</linearGradient>
<linearGradient id="paint2_linear_201_1073" x1="108.762" y1="55.5977" x2="157.962" y2="55.5977" gradientUnits="userSpaceOnUse">
<stop offset="0.12" stop-color="#C9933D"/>
<stop offset="0.19" stop-color="#8E682B"/>
<stop offset="0.34"/>
</linearGradient>
<linearGradient id="paint3_linear_201_1073" x1="63.8372" y1="6.29071" x2="57.9873" y2="146.051" gradientUnits="userSpaceOnUse">
<stop offset="0.39" stop-color="#C9933D"/>
<stop offset="0.42" stop-color="#C48F3B"/>
<stop offset="0.45" stop-color="#B88637"/>
<stop offset="0.48" stop-color="#A27731"/>
<stop offset="0.51" stop-color="#856128"/>
<stop offset="0.55" stop-color="#5E451C"/>
<stop offset="0.58" stop-color="#31230E"/>
<stop offset="0.61"/>
</linearGradient>
<linearGradient id="paint4_linear_201_1073" x1="63.3988" y1="19.1645" x2="58.5451" y2="135.11" gradientUnits="userSpaceOnUse">
<stop offset="0.39" stop-color="#C9933D"/>
<stop offset="0.42" stop-color="#C48F3B"/>
<stop offset="0.45" stop-color="#B88637"/>
<stop offset="0.48" stop-color="#A27731"/>
<stop offset="0.51" stop-color="#856128"/>
<stop offset="0.55" stop-color="#5E451C"/>
<stop offset="0.58" stop-color="#31230E"/>
<stop offset="0.61"/>
</linearGradient>
<linearGradient id="paint5_linear_201_1073" x1="71.0825" y1="45.8159" x2="143.977" y2="45.8159" gradientUnits="userSpaceOnUse">
<stop stop-color="#C9933D"/>
<stop offset="0.07" stop-color="#C38F3B"/>
<stop offset="0.16" stop-color="#B48436"/>
<stop offset="0.26" stop-color="#9C722F"/>
<stop offset="0.36" stop-color="#795924"/>
<stop offset="0.47" stop-color="#4D3817"/>
<stop offset="0.58" stop-color="#181107"/>
<stop offset="0.63"/>
</linearGradient>
<linearGradient id="paint6_linear_201_1073" x1="90.6963" y1="66.8344" x2="106.609" y2="66.8344" gradientUnits="userSpaceOnUse">
<stop stop-color="#C9933D"/>
<stop offset="0.07" stop-color="#C38F3B"/>
<stop offset="0.16" stop-color="#B48436"/>
<stop offset="0.26" stop-color="#9C722F"/>
<stop offset="0.36" stop-color="#795924"/>
<stop offset="0.47" stop-color="#4D3817"/>
<stop offset="0.58" stop-color="#181107"/>
<stop offset="0.63"/>
</linearGradient>
<linearGradient id="paint7_linear_201_1073" x1="92.9751" y1="73.5223" x2="104.457" y2="73.5223" gradientUnits="userSpaceOnUse">
<stop stop-color="#C9933D"/>
<stop offset="0.07" stop-color="#C38F3B"/>
<stop offset="0.16" stop-color="#B48436"/>
<stop offset="0.26" stop-color="#9C722F"/>
<stop offset="0.36" stop-color="#795924"/>
<stop offset="0.47" stop-color="#4D3817"/>
<stop offset="0.58" stop-color="#181107"/>
<stop offset="0.63"/>
</linearGradient>
<linearGradient id="paint8_linear_201_1073" x1="99.9774" y1="67.9961" x2="225.071" y2="67.9961" gradientUnits="userSpaceOnUse">
<stop offset="0.11" stop-color="#E5E890"/>
<stop offset="0.12" stop-color="#DCCE76"/>
<stop offset="0.13" stop-color="#D5B861"/>
<stop offset="0.14" stop-color="#CFA750"/>
<stop offset="0.15" stop-color="#CB9B45"/>
<stop offset="0.17" stop-color="#C9943E"/>
<stop offset="0.22" stop-color="#C9933D"/>
<stop offset="0.35" stop-color="#A07530"/>
<stop offset="0.64" stop-color="#3B2B12"/>
<stop offset="0.8"/>
</linearGradient>
<linearGradient id="paint9_linear_201_1073" x1="179.796" y1="87.4049" x2="210.998" y2="87.4049" gradientUnits="userSpaceOnUse">
<stop offset="0.15" stop-color="#756C6C"/>
<stop offset="0.21" stop-color="#6B6363"/>
<stop offset="0.75" stop-color="#1E1C1C"/>
<stop offset="1"/>
</linearGradient>
<linearGradient id="paint10_linear_201_1073" x1="178.266" y1="96.2904" x2="188.777" y2="88.5944" gradientUnits="userSpaceOnUse">
<stop offset="0.15" stop-color="#756C6C"/>
<stop offset="0.21" stop-color="#6B6363"/>
<stop offset="0.75" stop-color="#1E1C1C"/>
<stop offset="1"/>
</linearGradient>
<radialGradient id="paint11_radial_201_1073" cx="0" cy="0" r="1" gradientUnits="userSpaceOnUse" gradientTransform="translate(59.3967 95.9553) scale(26.9084 27.4596)">
<stop stop-color="white"/>
<stop offset="0.02" stop-color="#FDFDFD"/>
<stop offset="0.03" stop-color="#F6F6F6"/>
<stop offset="0.04" stop-color="#D9D9D9"/>
<stop offset="0.05" stop-color="#A8A8A8"/>
<stop offset="0.06" stop-color="#1C1C1C"/>
<stop offset="0.22" stop-color="#1E1E1E"/>
<stop offset="0.33" stop-color="#282828"/>
<stop offset="0.43" stop-color="#373737"/>
<stop offset="0.49" stop-color="#474747"/>
<stop offset="0.72" stop-color="#454545"/>
<stop offset="0.75" stop-color="#444444"/>
<stop offset="0.81" stop-color="#3D3D3D"/>
<stop offset="0.9" stop-color="#2B2B2B"/>
<stop offset="0.99" stop-color="#131313"/>
<stop offset="1"/>
</radialGradient>
<radialGradient id="paint12_radial_201_1073" cx="0" cy="0" r="1" gradientUnits="userSpaceOnUse" gradientTransform="translate(60.5815 95.5688) scale(39.4812 39.5368)">
<stop stop-color="#1C1C1C"/>
<stop offset="0.21" stop-color="#202020" stop-opacity="0.99"/>
<stop offset="0.28" stop-color="#313131" stop-opacity="0.95"/>
<stop offset="0.34" stop-color="#4E4E4E" stop-opacity="0.88"/>
<stop offset="0.38" stop-color="#787878" stop-opacity="0.78"/>
<stop offset="0.42" stop-color="#AEAEAE" stop-opacity="0.66"/>
<stop offset="0.45" stop-color="#F0F0F0" stop-opacity="0.5"/>
<stop offset="0.46" stop-color="white" stop-opacity="0.47"/>
<stop offset="0.5" stop-color="#F7F7F7" stop-opacity="0.49"/>
<stop offset="0.51" stop-color="#DEDEDE" stop-opacity="0.56"/>
<stop offset="0.52" stop-color="#B1B1B1" stop-opacity="0.69"/>
<stop offset="0.53" stop-color="#474747"/>
<stop offset="0.73" stop-color="#454545"/>
<stop offset="0.75" stop-color="#444444"/>
<stop offset="0.81" stop-color="#3D3D3D"/>
<stop offset="0.9" stop-color="#2B2B2B"/>
<stop offset="0.99" stop-color="#131313"/>
<stop offset="1"/>
</radialGradient>
<radialGradient id="paint13_radial_201_1073" cx="0" cy="0" r="1" gradientUnits="userSpaceOnUse" gradientTransform="translate(126.386 96.8446) scale(26.9287 27.9073)">
<stop stop-color="white"/>
<stop offset="0.02" stop-color="#FDFDFD"/>
<stop offset="0.03" stop-color="#F6F6F6"/>
<stop offset="0.04" stop-color="#D9D9D9"/>
<stop offset="0.05" stop-color="#A8A8A8"/>
<stop offset="0.06" stop-color="#1C1C1C"/>
<stop offset="0.22" stop-color="#1E1E1E"/>
<stop offset="0.33" stop-color="#282828"/>
<stop offset="0.43" stop-color="#373737"/>
<stop offset="0.49" stop-color="#474747"/>
<stop offset="0.72" stop-color="#454545"/>
<stop offset="0.75" stop-color="#444444"/>
<stop offset="0.81" stop-color="#3D3D3D"/>
<stop offset="0.9" stop-color="#2B2B2B"/>
<stop offset="0.99" stop-color="#131313"/>
<stop offset="1"/>
</radialGradient>
<radialGradient id="paint14_radial_201_1073" cx="0" cy="0" r="1" gradientUnits="userSpaceOnUse" gradientTransform="translate(128.774 96.6382) scale(39.6759 40.2686)">
<stop stop-color="#1C1C1C"/>
<stop offset="0.21" stop-color="#202020" stop-opacity="0.99"/>
<stop offset="0.28" stop-color="#313131" stop-opacity="0.95"/>
<stop offset="0.34" stop-color="#4E4E4E" stop-opacity="0.88"/>
<stop offset="0.38" stop-color="#787878" stop-opacity="0.78"/>
<stop offset="0.42" stop-color="#AEAEAE" stop-opacity="0.66"/>
<stop offset="0.45" stop-color="#F0F0F0" stop-opacity="0.5"/>
<stop offset="0.46" stop-color="white" stop-opacity="0.47"/>
<stop offset="0.5" stop-color="#F7F7F7" stop-opacity="0.49"/>
<stop offset="0.51" stop-color="#DEDEDE" stop-opacity="0.56"/>
<stop offset="0.52" stop-color="#B1B1B1" stop-opacity="0.69"/>
<stop offset="0.53" stop-color="#474747"/>
<stop offset="0.73" stop-color="#454545"/>
<stop offset="0.75" stop-color="#444444"/>
<stop offset="0.81" stop-color="#3D3D3D"/>
<stop offset="0.9" stop-color="#2B2B2B"/>
<stop offset="0.99" stop-color="#131313"/>
<stop offset="1"/>
</radialGradient>
</defs>
</svg>
