<svg width="202" height="166" viewBox="0 0 202 166" fill="none" xmlns="http://www.w3.org/2000/svg">
<path d="M178.269 68.6092L125.912 21.9151H121.786L116.214 4.43828C115.513 2.23589 117.183 0 119.514 0H137.013L183.506 66.3816L181.468 68.4836C180.608 69.3712 179.179 69.4298 178.26 68.6008L178.269 68.6092Z" fill="#AD762D"/>
<g style="mix-blend-mode:multiply" opacity="0.23">
<path d="M173.725 63.0683L126.789 21.0888L123.039 21.0302L118.219 5.50459C117.609 3.55342 119.155 1.59388 121.276 1.62738L137.172 1.86185L178.519 61.1674L176.64 63.0013C175.846 63.7801 174.552 63.8052 173.725 63.0599V63.0683Z" fill="#AD762D"/>
</g>
<path d="M149.317 16.689L161.529 21.7469C162.69 22.2243 162.849 23.7819 161.813 24.4769L156.4 28.1448C156.142 28.3206 155.799 28.2536 155.624 27.994L148.649 17.4929C148.348 17.0407 148.824 16.488 149.325 16.689H149.317Z" fill="#C9933D"/>
<path d="M193.196 67.6207L175.111 43.3608" stroke="black" stroke-width="2" stroke-miterlimit="10"/>
<path d="M162.147 23.9335L176.748 42.1137C177.458 42.993 177.333 44.2658 176.473 45.0028C175.579 45.7648 174.218 45.656 173.466 44.7515L158.531 26.7723C158.497 26.7304 158.497 26.6635 158.547 26.6216L161.997 23.9084C162.047 23.8749 162.114 23.8832 162.147 23.9251V23.9335Z" fill="url(#paint0_linear_201_829)"/>
<path d="M179.939 63.2673L194.139 66.4327C195.543 66.7425 196.403 68.1326 196.06 69.506H180.507C178.578 69.506 177.016 67.9652 177.016 66.0642V65.5785C177.016 64.0628 178.444 62.9407 179.939 63.2673Z" fill="#C9933D"/>
<path d="M190.581 67.6218C190.581 69.3301 191.984 70.7118 193.713 70.7118C195.442 70.7118 196.846 69.3301 196.846 67.6218C196.846 65.9135 195.442 64.5317 193.713 64.5317C191.984 64.5317 190.581 65.9135 190.581 67.6218Z" fill="#474747"/>
<path d="M193.354 67.2642L202 78.2259L193.847 101.07C193.079 103.231 190.999 104.68 188.677 104.68H155.899L161.613 96.8499L173.198 94.0362L193.354 67.2725V67.2642Z" fill="url(#paint1_linear_201_829)"/>
<path d="M193.864 69.1027C194.634 69.1027 195.259 68.4878 195.259 67.7293C195.259 66.9708 194.634 66.356 193.864 66.356C193.093 66.356 192.469 66.9708 192.469 67.7293C192.469 68.4878 193.093 69.1027 193.864 69.1027Z" fill="black"/>
<path d="M178.569 66.3823C178.569 67.1276 179.179 67.7222 179.931 67.7222C180.683 67.7222 181.292 67.1193 181.292 66.3823C181.292 65.6454 180.683 65.0425 179.931 65.0425C179.179 65.0425 178.569 65.6454 178.569 66.3823Z" fill="black"/>
<path d="M83.07 101.744H71.9605C71.9605 101.744 67.4917 38.31 93.2272 25.6651L124.359 10.4493C127.608 8.4395 130.891 12.3083 127.583 14.9713C127.583 14.9713 91.9659 35.0524 83.0783 101.736L83.07 101.744Z" fill="#C9933D"/>
<g style="mix-blend-mode:multiply" opacity="0.33">
<path d="M83.1201 99.873H72.7206C72.7206 99.873 68.5358 39.0434 92.6258 26.9176L92.9515 26.7585C97.7796 24.3384 102.608 21.9267 107.436 19.5065C110.777 17.8317 114.093 16.115 117.426 14.4486C118.846 13.7368 120.274 13.0333 121.711 12.3383C123.106 11.6684 124.509 10.4625 126.121 10.5211C126.789 10.5462 127.474 10.8058 127.9 11.325C128.109 11.5762 128.251 11.8861 128.318 12.2043C128.569 13.3934 127.817 14.3565 126.898 15.0264C126.48 15.3278 125.879 15.7549 125.361 15.8638C124.517 16.0396 124.501 15.1855 123.833 15.1687C123.148 15.1604 121.961 16.584 121.485 17.011C116.808 21.307 112.314 25.8374 108.346 30.7781C104.437 35.6518 100.628 40.9024 97.6626 46.3875L98.0051 49.0755C94.6973 55.5571 91.6151 63.5042 89.4099 70.4212C86.2274 80.3948 84.4566 89.4974 83.1034 99.8562L83.1201 99.873Z" fill="#C9933D"/>
</g>
<path d="M125.896 14.6128C126.879 14.6128 127.675 13.8255 127.675 12.8543C127.675 11.883 126.879 11.0957 125.896 11.0957C124.913 11.0957 124.117 11.883 124.117 12.8543C124.117 13.8255 124.913 14.6128 125.896 14.6128Z" fill="#474747"/>
<path d="M110.819 117.708C110.844 116.921 110.518 116.176 109.925 115.657C108.121 114.082 104.011 110.707 100.311 109.183C95.3908 107.157 81.7922 100.935 65.9298 101.563L67.6088 83.4581C67.6088 83.4581 59.0637 82.7547 57.1592 88.5998C55.639 93.2558 55.1628 96.1617 55.0375 97.1498C55.0125 97.3675 54.8204 97.5099 54.6032 97.4848C50.2429 97.0074 10.7082 92.7785 5.12009 96.5301C-0.802173 100.499 0.0414791 111.143 0.0414791 111.143L0.0164212 119.961C0.0164212 122.532 2.00443 124.667 4.59386 124.86C21.0827 126.116 77.8913 130.127 107.344 128.176C109.131 128.059 110.526 126.618 110.585 124.851C110.668 122.498 110.777 119.391 110.827 117.708H110.819Z" fill="url(#paint2_linear_201_829)"/>
<path style="mix-blend-mode:hard-light" opacity="0.3" d="M110.811 117.909C110.844 116.996 110.46 116.125 109.758 115.522C107.862 113.898 103.827 110.665 100.227 109.175C95.3074 107.148 81.0823 100.935 65.2116 101.563L66.7402 83.4328C66.7402 83.4328 58.9719 82.7545 57.0674 88.5996C55.163 94.4447 54.9792 97.5264 54.9792 97.5264C54.9792 97.5264 10.9506 92.5605 5.01998 96.5299C2.44726 98.2466 0.375718 102.048 0.283835 105.113C0.275482 105.39 0.283834 105.691 0.4676 105.917C0.835131 106.378 1.5702 106.177 2.12149 105.951C8.93753 103.137 9.74777 100.081 20.757 100.499C30.9309 100.884 48.8397 102.97 64.1842 105.247C72.1112 106.42 79.3532 107.651 84.4903 108.723C98.4314 111.628 100.637 113.889 110.744 119.701C110.744 119.701 110.777 118.813 110.811 117.917V117.909Z" fill="url(#paint3_linear_201_829)"/>
<path d="M45.6823 96.5949V92.8014C45.6823 92.2069 45.1978 91.7295 44.5964 91.7295H42.8506C42.316 91.7295 41.8566 91.3443 41.7814 90.8168L41.2134 87.0065C41.1382 86.479 40.6788 86.0938 40.1442 86.0938H36.6944C36.3854 86.0938 36.093 86.2194 35.8842 86.4455L35.216 87.1824C34.7482 87.6932 33.9213 87.643 33.5203 87.0819L33.1444 86.5543C32.944 86.2696 32.6098 86.0938 32.259 86.0938H28.3498C27.9739 86.0938 27.6315 86.2864 27.431 86.5962L27.3725 86.6883C27.0133 87.2494 26.2365 87.3582 25.7353 86.9228L25.1005 86.3617C24.9 86.1859 24.6494 86.0938 24.3822 86.0938H19.7546C19.3453 86.0938 18.9694 86.3199 18.7857 86.6883C18.4348 87.3834 17.4659 87.4839 16.9647 86.8809L16.6556 86.5041C16.4468 86.2529 16.1378 86.1021 15.812 86.1021H12.0114C11.5436 86.1021 11.1343 86.3952 10.984 86.8307C10.5162 88.1957 9.63078 91.3611 9.78113 95.3472" fill="black"/>
<path d="M44.9637 96.596V93.4223C44.9637 92.9282 44.4876 92.5262 43.9029 92.5262H42.1989C41.6726 92.5262 41.2216 92.1996 41.1464 91.7642L40.5867 88.582C40.5116 88.1466 40.0605 87.82 39.5343 87.82H36.1597C35.859 87.82 35.575 87.9288 35.3661 88.1131L34.7146 88.7244C34.2552 89.1515 33.4449 89.1096 33.0524 88.6406L32.6848 88.1968C32.4843 87.954 32.1586 87.8116 31.8161 87.8116H27.9821C27.6146 87.8116 27.2721 87.9707 27.08 88.2303L27.0215 88.3057C26.6707 88.7746 25.9105 88.8667 25.4177 88.4983L24.7912 88.0293C24.5991 87.887 24.3485 87.8032 24.0896 87.8032H19.5539C19.153 87.8032 18.7854 87.9958 18.6017 88.2973C18.2509 88.8835 17.307 88.9672 16.8225 88.4564L16.5218 88.1382C16.3213 87.9288 16.0123 87.8032 15.6948 87.8032H11.9694C11.51 87.8032 11.1091 88.0461 10.9587 88.4145C10.4993 89.5534 9.63058 92.1996 9.78093 95.5325" fill="#28221B"/>
<path d="M95.1319 128.953V137.126H58.9551V128.057L95.1319 128.953Z" fill="#604520"/>
<path d="M96.6184 134.731V137.595C96.6184 138.659 95.7414 139.521 94.6722 139.521H59.3808C58.3033 139.521 57.4346 138.659 57.4346 137.595V134.07C57.4346 132.99 58.3283 132.127 59.4226 132.144L94.714 132.797C95.7748 132.814 96.6268 133.676 96.6268 134.723L96.6184 134.731Z" fill="#3A2B1A"/>
<path d="M110.576 124.849L0.133301 121.072C0.133301 121.072 1.14401 124.447 3.0652 124.991C4.50191 125.402 65.1613 129.388 95.1235 128.944C101.012 128.852 104.93 129.019 107.185 128.458C111.245 127.445 110.501 125.418 110.568 124.841L110.576 124.849Z" fill="url(#paint4_linear_201_829)"/>
<path d="M76.1957 122.875C76.1957 122.875 59.7487 102.961 8.4864 105.063C7.78475 105.088 7.2251 105.666 7.2251 106.353V120.723L76.1957 122.875Z" fill="black"/>
<path d="M22.6198 86.0949V76.9671C22.6198 76.5652 22.4611 76.1799 22.1604 75.8952C21.4587 75.2337 19.8884 74.1953 17.0483 74.7647L17.065 77.21C17.065 77.21 19.2034 76.3139 20.3144 77.838L20.3394 86.0949H22.6114H22.6198Z" fill="black"/>
<path opacity="0.62" d="M107.937 114.486L103.493 81.2995C103.493 81.2995 102.223 75.4544 97.5709 75.0356C92.9183 74.6169 74.0823 75.8731 74.0823 75.8731C74.0823 75.8731 68.5777 76.5011 67.9428 81.9275C67.308 87.354 66.4644 103.005 66.4644 103.005C66.4644 103.005 99.2582 102.377 107.929 114.486H107.937Z" fill="#ADCEFF"/>
<path opacity="0.19" d="M107.694 114.719L103.201 85.6108C103.201 85.6108 97.5623 77.6721 92.9932 76.7091C86.1855 75.2771 77.4399 76.1481 77.4399 76.1481C77.4399 76.1481 103.067 78.2751 107.694 114.719Z" fill="white"/>
<g style="mix-blend-mode:multiply" opacity="0.31">
<path d="M107.904 114.752L101.48 101.756C101.48 101.756 98.1474 93.0298 93.4947 92.6111C88.8421 92.1924 74.0573 76.1309 74.0573 76.1309C74.0573 76.1309 68.3523 76.7338 67.9179 82.1853C67.2831 90.2329 79.0274 100.022 79.0274 100.022C79.0274 100.022 99.2332 102.643 107.904 114.752Z" fill="#ADCEFF"/>
</g>
<path d="M106.233 101.747L92.4922 99.553L90.6044 75.2681L87.2382 75.3937L88.274 98.7491C88.274 98.7491 70.2649 96.5132 66.2054 97.7861L65.8462 102.878C65.8462 102.878 95.8835 102.166 107.945 114.476L106.241 101.747H106.233Z" fill="url(#paint5_linear_201_829)"/>
<path d="M104.646 89.897H106.793C108.371 89.897 109.691 91.0861 109.825 92.6353L111.312 109.065C111.487 111.017 109.257 112.465 107.703 112.7H107.937" stroke="black" stroke-miterlimit="10"/>
<path d="M106.225 101.763L103.485 81.3051C103.485 81.3051 103 76.5737 98.707 75.2757C94.4136 73.9777 73.5395 75.9792 73.5395 75.9792C73.5395 75.9792 68.6613 76.4062 67.7759 82.2514C66.949 87.7197 66.2056 98.5307 66.2056 98.5307L67.4502 98.0617C67.4502 98.0617 68.1936 83.9094 68.3105 83.0553C68.4442 82.1341 68.9871 77.0929 73.5478 76.6407C76.3628 76.3644 87.2384 75.6107 87.2384 75.6107C87.2384 75.6107 89.9782 75.5186 90.613 75.4767C92.5008 75.3678 97.3371 75.5772 98.0304 75.7196C98.7237 75.8535 101.798 76.557 102.591 81.4893C103.385 86.4217 105.364 101.763 105.364 101.763H106.225Z" fill="#474747"/>
<path d="M124.017 138.853L14.5591 139.564C14.5591 139.564 8.06885 139.33 8.06885 148.315C8.06885 161.119 21.3334 159.562 21.3334 159.562L122.63 160.768C122.63 160.768 133.689 159.218 133.689 149.27C133.689 139.321 124.008 138.853 124.008 138.853H124.017Z" fill="#383838"/>
<path d="M121.736 158.218C126.497 158.218 130.357 154.409 130.357 149.71C130.357 145.011 126.497 141.202 121.736 141.202C116.976 141.202 113.116 145.011 113.116 149.71C113.116 154.409 116.976 158.218 121.736 158.218Z" fill="black"/>
<path d="M121.736 156.038C125.275 156.038 128.143 153.207 128.143 149.716C128.143 146.224 125.275 143.393 121.736 143.393C118.198 143.393 115.33 146.224 115.33 149.716C115.33 153.207 118.198 156.038 121.736 156.038Z" fill="#383838"/>
<path d="M14.2583 148.864C14.2583 151.72 16.6055 154.031 19.4956 154.031C22.3858 154.031 24.7329 151.72 24.7329 148.864C24.7329 146.009 22.3858 143.697 19.4956 143.697C16.6055 143.697 14.2583 146.009 14.2583 148.864Z" fill="black"/>
<path d="M3.48308 146.254L6.35651 140.074L9.36358 140.116L8.67864 137.494L15.645 134.572L17.9003 137.143L19.9969 134.17H28.4084L30.7472 137.143L32.0503 134.17H40.1026L42.7171 137.143L44.2373 134.17H53.5592L55.3384 137.143L57.1928 134.17H66.2307L68.8452 137.143L70.2819 134.17H80.3807L82.5608 137.143L84.081 134.17H93.4447L95.842 137.143L97.5878 134.17H106.074L108.472 137.143L109.558 134.17H118.27L119.965 136.582L122.58 134.237L130.674 135.803L130.975 138.918L134.876 137.813L139.353 143.474L137.549 146.43L140.422 148.197L139.244 155.281L136.095 156.194L137.983 158.982L131.635 164.844L129.229 162.659L127.734 165.531L118.261 166L116.131 163.597L113.91 166H104.212L101.94 163.345L99.7512 166H89.736L87.6645 162.952L86.2528 166H75.8032L73.5479 163.387L71.4513 166H61.8705L59.966 163.588L57.9529 166H49.4663L47.2861 163.546L45.3232 166H34.4392L32.919 163.546L30.7389 165.163L21.5673 164.007L20.0721 161.252L17.3657 163.278L10.0318 160.373L9.62252 156.772L6.38156 157.375L3.06543 150.039L5.62144 148.096L3.48308 146.254ZM25.7354 158.413L122.697 159.878C122.697 159.878 132.203 159.108 131.985 150.081C131.768 141.053 123.708 140.116 123.708 140.116L72.0862 140.995L22.9539 140.794C22.9539 140.794 12.1785 140.375 12.212 148.867C12.212 148.867 11.2764 158.22 25.7438 158.413H25.7354Z" fill="black"/>
<path d="M114.177 160.133L109.24 152.889H27.7233L24.7329 158.517L114.177 160.133Z" fill="#474747"/>
<path d="M109.24 149.995H27.3892" stroke="#474747" stroke-miterlimit="10"/>
<path d="M113.116 139.204L109.574 146.833H27.7233L24.7329 139.983L113.116 139.204Z" fill="#474747"/>
<path d="M19.3203 151.754C20.9626 151.754 22.294 150.442 22.294 148.824C22.294 147.205 20.9626 145.893 19.3203 145.893C17.678 145.893 16.3467 147.205 16.3467 148.824C16.3467 150.442 17.678 151.754 19.3203 151.754Z" fill="#474747"/>
<path d="M118.086 149.715C118.086 151.699 119.723 153.316 121.736 153.316C123.749 153.316 125.386 151.708 125.386 149.715C125.386 147.722 123.749 146.114 121.736 146.114C119.723 146.114 118.086 147.722 118.086 149.715Z" fill="#222221"/>
<defs>
<linearGradient id="paint0_linear_201_829" x1="176.857" y1="28.1792" x2="156.69" y2="40.8178" gradientUnits="userSpaceOnUse">
<stop offset="0.31" stop-color="#232322"/>
<stop offset="0.33" stop-color="#323030"/>
<stop offset="0.35" stop-color="#4F4A4A"/>
<stop offset="0.38" stop-color="#645D5C"/>
<stop offset="0.41" stop-color="#706868"/>
<stop offset="0.43" stop-color="#756C6C"/>
<stop offset="0.47" stop-color="#5F5858"/>
<stop offset="0.53" stop-color="#3D3838"/>
<stop offset="0.6" stop-color="#221F1F"/>
<stop offset="0.66" stop-color="#0F0E0E"/>
<stop offset="0.73" stop-color="#030303"/>
<stop offset="0.8"/>
</linearGradient>
<linearGradient id="paint1_linear_201_829" x1="200.349" y1="96.0125" x2="161.915" y2="85.1528" gradientUnits="userSpaceOnUse">
<stop offset="0.15" stop-color="#756C6C"/>
<stop offset="0.21" stop-color="#6B6363"/>
<stop offset="0.75" stop-color="#1E1C1C"/>
<stop offset="1"/>
</linearGradient>
<linearGradient id="paint2_linear_201_829" x1="57.4018" y1="69.6743" x2="55.0634" y2="178.942" gradientUnits="userSpaceOnUse">
<stop offset="0.13" stop-color="#C9933D"/>
<stop offset="0.2" stop-color="#C5903B"/>
<stop offset="0.27" stop-color="#B98738"/>
<stop offset="0.34" stop-color="#A57932"/>
<stop offset="0.41" stop-color="#8A6529"/>
<stop offset="0.48" stop-color="#664B1F"/>
<stop offset="0.55" stop-color="#3B2B11"/>
<stop offset="0.62" stop-color="#080602"/>
<stop offset="0.63"/>
</linearGradient>
<linearGradient id="paint3_linear_201_829" x1="57.4791" y1="72.5632" x2="55.6403" y2="158.462" gradientUnits="userSpaceOnUse">
<stop offset="0.13" stop-color="#FFF8B1"/>
<stop offset="0.19" stop-color="#FBF4AE"/>
<stop offset="0.25" stop-color="#EFE8A6"/>
<stop offset="0.32" stop-color="#DBD598"/>
<stop offset="0.38" stop-color="#C0BA85"/>
<stop offset="0.44" stop-color="#9C986C"/>
<stop offset="0.5" stop-color="#706D4E"/>
<stop offset="0.57" stop-color="#3D3B2A"/>
<stop offset="0.63"/>
</linearGradient>
<linearGradient id="paint4_linear_201_829" x1="56.7141" y1="122.253" x2="56.4343" y2="135.382" gradientUnits="userSpaceOnUse">
<stop stop-color="#C9933D"/>
<stop offset="0.08" stop-color="#C48F3B"/>
<stop offset="0.17" stop-color="#B88637"/>
<stop offset="0.26" stop-color="#A27731"/>
<stop offset="0.36" stop-color="#856128"/>
<stop offset="0.45" stop-color="#5E451C"/>
<stop offset="0.54" stop-color="#31230E"/>
<stop offset="0.63"/>
</linearGradient>
<linearGradient id="paint5_linear_201_829" x1="88.576" y1="75.2011" x2="87.7466" y2="114.027" gradientUnits="userSpaceOnUse">
<stop offset="0.15" stop-color="#756C6C"/>
<stop offset="0.21" stop-color="#6B6363"/>
<stop offset="0.75" stop-color="#1E1C1C"/>
<stop offset="1"/>
</linearGradient>
</defs>
</svg>
