<svg width="198" height="183" viewBox="0 0 198 183" fill="none" xmlns="http://www.w3.org/2000/svg">
<path d="M83.3609 99.062C83.3609 99.062 89.7745 99.9539 90.4345 102.844C91.0946 105.734 91.9688 123.518 91.9688 123.518C91.9688 123.518 116.089 119.746 127.489 138.413L82.4243 137.959L83.3609 99.062Z" fill="url(#paint0_linear_1_2926)"/>
<path d="M111.486 111.388C111.51 110.643 111.201 109.938 110.638 109.447C108.927 107.957 105.027 104.763 101.516 103.321C96.8482 101.403 83.9456 95.5153 68.8953 96.1097L70.4883 78.9767C70.4883 78.9767 62.3806 78.311 60.5736 83.8424C59.1312 88.2485 58.6794 90.9983 58.5606 91.9334C58.5368 92.1394 58.3545 92.2742 58.1484 92.2504C54.0114 91.7987 16.5004 87.7968 11.1983 91.347C5.57922 95.1032 6.37969 105.175 6.37969 105.175L6.35591 113.52C6.35591 115.953 8.24216 117.974 10.699 118.156C26.3438 119.345 80.2445 123.14 108.189 121.294C109.885 121.183 111.209 119.82 111.265 118.148C111.344 115.921 111.447 112.981 111.494 111.388H111.486Z" fill="url(#paint1_linear_1_2926)"/>
<path style="mix-blend-mode:hard-light" opacity="0.3" d="M111.478 111.58C111.51 110.716 111.146 109.892 110.48 109.321C108.681 107.784 104.853 104.725 101.437 103.315C96.7688 101.397 83.2719 95.5168 68.2136 96.1111L69.664 78.9544C69.664 78.9544 62.2933 78.3125 60.4863 83.8439C58.6793 89.3753 58.505 92.2915 58.505 92.2915C58.505 92.2915 16.7302 87.5922 11.1031 91.3485C8.66209 92.973 6.69659 96.5708 6.60941 99.4712C6.60149 99.7327 6.60941 100.018 6.78377 100.232C7.13249 100.668 7.82992 100.478 8.353 100.264C14.8201 97.601 15.5889 94.7085 26.0346 95.1047C35.6877 95.4693 52.6798 97.4425 67.2388 99.598C74.76 100.707 81.6313 101.872 86.5054 102.887C99.7329 105.636 101.825 107.776 111.415 113.276C111.415 113.276 111.447 112.436 111.478 111.588V111.58Z" fill="url(#paint2_linear_1_2926)"/>
<path d="M49.684 91.4096V87.8198C49.684 87.2571 49.2243 86.8054 48.6537 86.8054H46.9973C46.49 86.8054 46.0542 86.4409 45.9828 85.9416L45.4439 82.336C45.3726 81.8367 44.9367 81.4722 44.4294 81.4722H41.1562C40.863 81.4722 40.5856 81.591 40.3875 81.805L39.7535 82.5024C39.3096 82.9858 38.525 82.9382 38.1446 82.4073L37.788 81.908C37.5977 81.6386 37.2807 81.4722 36.9479 81.4722H33.2388C32.8821 81.4722 32.5572 81.6544 32.367 81.9476L32.3115 82.0348C31.9707 82.5658 31.2336 82.6688 30.7581 82.2567L30.1558 81.7258C29.9656 81.5593 29.7278 81.4722 29.4742 81.4722H25.0835C24.6952 81.4722 24.3385 81.6861 24.1642 82.0348C23.8313 82.6926 22.912 82.7877 22.4364 82.2171L22.1432 81.8605C21.9451 81.6227 21.6518 81.4801 21.3427 81.4801H17.7367C17.2929 81.4801 16.9045 81.7575 16.7619 82.1695C16.318 83.4612 15.4779 86.4567 15.6206 90.2288" fill="black"/>
<path d="M49.0024 91.4072V88.4038C49.0024 87.9363 48.5507 87.5559 47.9959 87.5559H46.3791C45.8798 87.5559 45.4519 87.2468 45.3805 86.8348L44.8495 83.8234C44.7782 83.4113 44.3502 83.1023 43.8509 83.1023H40.6491C40.3637 83.1023 40.0943 83.2053 39.8961 83.3796L39.278 83.9581C38.8421 84.3623 38.0733 84.3227 37.7008 83.8789L37.3521 83.4589C37.1619 83.2291 36.8528 83.0944 36.5278 83.0944H32.8901C32.5414 83.0944 32.2164 83.2449 32.0341 83.4906L31.9787 83.5619C31.6458 84.0057 30.9246 84.0928 30.457 83.7442L29.8626 83.3004C29.6803 83.1657 29.4425 83.0864 29.1968 83.0864H24.8934C24.5129 83.0864 24.1642 83.2687 23.9899 83.554C23.657 84.1087 22.7614 84.1879 22.3017 83.7045L22.0164 83.4034C21.8262 83.2053 21.533 83.0864 21.2318 83.0864H17.6971C17.2612 83.0864 16.8808 83.3162 16.7381 83.6649C16.3022 84.7427 15.478 87.2468 15.6206 90.4008" fill="#28221B"/>
<path d="M96.6025 122.031V129.765H62.2776V121.183L96.6025 122.031Z" fill="#604520"/>
<path d="M98.0133 127.497V130.207C98.0133 131.214 97.1811 132.03 96.1667 132.03H62.6818C61.6594 132.03 60.8352 131.214 60.8352 130.207V126.871C60.8352 125.849 61.6832 125.033 62.7215 125.049L96.2063 125.667C97.2128 125.683 98.0212 126.499 98.0212 127.489L98.0133 127.497Z" fill="#3A2B1A"/>
<path d="M111.257 118.147L6.4668 114.573C6.4668 114.573 7.42577 117.766 9.24861 118.281C10.6118 118.67 68.1661 122.442 96.5945 122.022C102.182 121.935 105.899 122.093 108.039 121.562C111.891 120.603 111.185 118.686 111.249 118.139L111.257 118.147Z" fill="url(#paint3_linear_1_2926)"/>
<path d="M78.6356 116.277C78.6356 116.277 63.0305 97.4324 14.3923 99.4215C13.7266 99.4453 13.1956 99.9921 13.1956 100.642V114.24L78.6356 116.277Z" fill="black"/>
<path d="M27.8021 81.472V72.8342C27.8021 72.4538 27.6515 72.0893 27.3662 71.8198C26.7005 71.1938 25.2105 70.2112 22.5159 70.75L22.5317 73.064C22.5317 73.064 24.5606 72.2161 25.6147 73.6583L25.6385 81.472H27.7942H27.8021Z" fill="black"/>
<path d="M8.60152 127.539L106.877 126C110.315 125.948 112.789 130.159 111.767 134.317L106.911 154L6 147.785V130.976C6 129.069 7.16561 127.521 8.60152 127.539Z" fill="url(#paint4_linear_1_2926)"/>
<path style="mix-blend-mode:multiply" opacity="0.28" d="M8.60152 131.263L106.877 130C110.315 129.957 112.789 133.422 111.767 136.834L106.911 153L6 147.89V134.083C6 132.516 7.16561 131.245 8.60152 131.254V131.263Z" fill="url(#paint5_linear_1_2926)"/>
<path style="mix-blend-mode:multiply" opacity="0.28" d="M8.60152 127.318L106.877 126C110.315 125.955 112.789 129.57 111.767 133.131L106.911 150L6 144.668V130.261C6 128.626 7.16561 127.299 8.60152 127.309V127.318Z" fill="url(#paint6_linear_1_2926)"/>
<path d="M47.8112 128.846L48.9602 127.72C49.2874 127.4 49.7745 127.294 50.2006 127.461L54.5228 129.097C54.9185 129.249 55.2077 129.599 55.2762 130.017L55.4436 130.991C55.5806 131.806 56.4633 132.239 57.1786 131.844L58.1602 131.303C58.5559 131.083 59.0429 131.113 59.4082 131.372L62.8173 133.791C63.2206 134.073 63.4032 134.575 63.2891 135.062L63.0303 136.15C62.8477 136.903 63.4184 137.634 64.187 137.634H65.7545C66.1426 137.634 66.5079 137.824 66.7286 138.151L68.5625 140.837C68.8288 141.225 68.844 141.727 68.6081 142.138L68.0755 143.051C67.6645 143.759 68.0526 144.672 68.8516 144.839L69.6583 145.014C70.1148 145.113 70.4649 145.471 70.5714 145.927L71.4769 149.998C71.5682 150.409 71.4389 150.835 71.1421 151.132L70.6627 151.596C70.1072 152.136 70.1985 153.064 70.853 153.483L71.1345 153.666C71.515 153.909 71.7281 154.35 71.6824 154.799L71.2486 159.25C71.203 159.745 70.8606 160.156 70.3888 160.293L70.1757 160.354C69.4071 160.574 69.0647 161.48 69.4985 162.165L70.0387 163.017C70.2214 163.306 70.2746 163.671 70.1757 164.006L69.1712 167.506C69.0343 167.978 68.631 168.312 68.1516 168.366L67.2688 168.457C66.5231 168.533 66.0361 169.279 66.2568 170.009L66.5307 170.93C66.6677 171.379 66.5307 171.858 66.1959 172.17L62.3379 175.716C61.9193 176.096 61.2953 176.134 60.8464 175.799L60.7246 175.708C60.0017 175.176 58.9896 175.609 58.8527 176.499L58.7233 177.344C58.6624 177.747 58.4113 178.09 58.0461 178.257L53.3586 180.448C52.8792 180.677 52.3084 180.547 51.966 180.144C51.3801 179.452 50.2691 179.65 49.9571 180.509L49.8277 180.867C49.6679 181.308 49.2646 181.613 48.8004 181.643L43.5879 182.008C43.1237 182.039 42.6899 181.795 42.4693 181.392L42.1725 180.844C41.7692 180.098 40.7419 180.007 40.2092 180.669L39.6233 181.4C39.3037 181.795 38.771 181.947 38.2916 181.772L33.8248 180.114C33.3911 179.954 33.0867 179.551 33.0486 179.086L32.9801 178.31C32.904 177.451 31.9833 176.948 31.2376 177.359L30.4994 177.763C30.0429 178.014 29.4874 177.93 29.1145 177.572L25.538 174.103C25.2108 173.783 25.089 173.304 25.226 172.87L25.5152 171.934C25.7815 171.074 25.0586 170.23 24.1835 170.382L23.5899 170.489C23.0801 170.58 22.5779 170.329 22.3344 169.865L19.945 165.261C19.7395 164.866 19.7699 164.386 20.0211 164.021L20.7668 162.925C21.231 162.241 20.8885 161.29 20.0895 161.076L18.8568 160.749C18.3698 160.62 18.0121 160.186 17.9741 159.676L17.6393 155.02C17.6012 154.518 17.8752 154.054 18.3241 153.841L19.2982 153.384C20.0439 153.034 20.2189 152.03 19.6406 151.444L18.4307 150.219C18.1339 149.922 18.0197 149.481 18.1187 149.07L19.359 144.109C19.4732 143.66 19.8232 143.318 20.2722 143.226L22.1593 142.831C22.9964 142.656 23.3845 141.666 22.8899 140.959L22.1593 139.909C21.8321 139.445 21.8778 138.813 22.2583 138.395L25.089 135.321C25.363 135.024 25.7663 134.887 26.1544 134.956L28.0339 135.283C28.8329 135.42 29.5254 134.727 29.4037 133.913L29.2058 132.582C29.1297 132.064 29.3884 131.554 29.8526 131.326L34.0683 129.196C34.4412 129.005 34.8749 129.028 35.225 129.257L36.4044 130.01C37.0513 130.421 37.9111 130.116 38.1623 129.378L38.5123 128.328C38.6569 127.902 39.0222 127.59 39.4635 127.522L44.1967 126.807C44.7141 126.73 45.2239 127.004 45.4446 127.484L45.9164 128.511C46.2588 129.257 47.2329 129.439 47.8188 128.869L47.8112 128.846Z" fill="url(#paint7_radial_1_2926)"/>
<path opacity="0.06" d="M47.1797 132.985L48.1613 132.034C48.4429 131.76 48.8538 131.676 49.219 131.813L52.9097 133.198C53.2445 133.327 53.4956 133.624 53.5565 133.981L53.7011 134.811C53.8152 135.496 54.5762 135.868 55.1849 135.534L56.022 135.077C56.3568 134.894 56.7753 134.917 57.0873 135.138L60.0018 137.185C60.3442 137.421 60.504 137.847 60.4051 138.258L60.1844 139.178C60.0322 139.817 60.5116 140.434 61.1661 140.434H62.5053C62.8402 140.434 63.1522 140.601 63.3348 140.875L64.9024 143.142C65.1306 143.47 65.1459 143.896 64.9404 144.238L64.4838 145.014C64.1338 145.615 64.4686 146.384 65.1459 146.528L65.8307 146.673C66.2188 146.757 66.5232 147.053 66.6069 147.441L67.3755 150.88C67.4516 151.23 67.345 151.588 67.0863 151.839L66.6754 152.235C66.2036 152.691 66.2797 153.475 66.8352 153.825L67.0711 153.977C67.3983 154.183 67.5733 154.556 67.5353 154.936L67.1624 158.695C67.1243 159.113 66.8276 159.463 66.4243 159.57L66.2416 159.623C65.5872 159.806 65.2904 160.574 65.6633 161.152L66.1275 161.875C66.2873 162.119 66.3253 162.423 66.2492 162.705L65.3894 165.664C65.2752 166.06 64.9328 166.349 64.5219 166.395L63.7685 166.471C63.1369 166.539 62.7184 167.171 62.901 167.78L63.1369 168.556C63.2511 168.929 63.1369 169.339 62.8478 169.606L59.5528 172.604C59.1952 172.931 58.6625 172.954 58.2744 172.672L58.1755 172.596C57.5591 172.147 56.6916 172.512 56.5775 173.266L56.4709 173.973C56.4177 174.308 56.2046 174.597 55.8926 174.742L51.89 176.591C51.4791 176.781 50.9921 176.674 50.6953 176.332C50.1931 175.746 49.2495 175.913 48.9755 176.644L48.8614 176.941C48.7244 177.313 48.382 177.572 47.9787 177.603L43.5271 177.914C43.1314 177.945 42.7585 177.739 42.5683 177.389L42.3172 176.925C41.9671 176.294 41.0996 176.218 40.6431 176.773L40.1408 177.389C39.8669 177.724 39.4103 177.854 39.007 177.701L35.1946 176.301C34.8217 176.164 34.5706 175.83 34.5326 175.434L34.4793 174.78C34.4184 174.049 33.627 173.623 32.9878 173.973L32.3563 174.316C31.9682 174.521 31.4964 174.46 31.1768 174.156L28.1253 171.226C27.8438 170.96 27.7449 170.557 27.859 170.184L28.1101 169.393C28.3384 168.67 27.722 167.955 26.9687 168.084L26.4664 168.168C26.0327 168.244 25.5989 168.031 25.4011 167.643L23.3617 163.755C23.1867 163.42 23.2095 163.016 23.4226 162.705L24.0542 161.784C24.4499 161.206 24.1531 160.407 23.4759 160.224L22.4258 159.943C22.0072 159.828 21.7029 159.471 21.6724 159.037L21.3832 155.103C21.3528 154.685 21.5887 154.282 21.9692 154.107L22.7986 153.719C23.4378 153.422 23.59 152.577 23.0878 152.075L22.0605 151.04C21.8094 150.789 21.7105 150.416 21.7942 150.074L22.8519 145.882C22.9508 145.501 23.2476 145.212 23.6281 145.136L25.2413 144.801C25.9566 144.649 26.2838 143.82 25.8653 143.218L25.2413 142.336C24.9674 141.94 24.9978 141.408 25.325 141.058L27.7448 138.455C27.9807 138.204 28.3232 138.09 28.658 138.143L30.2636 138.417C30.9485 138.531 31.542 137.946 31.4355 137.261L31.2681 136.135C31.1996 135.701 31.4203 135.267 31.816 135.069L35.4153 133.274C35.7349 133.114 36.1077 133.137 36.4045 133.319L37.409 133.951C37.9645 134.301 38.695 134.035 38.9081 133.418L39.2049 132.528C39.3266 132.171 39.6386 131.904 40.0115 131.851L44.0521 131.242C44.4935 131.174 44.9272 131.41 45.1175 131.813L45.5208 132.68C45.8176 133.312 46.6394 133.464 47.1416 132.977L47.1797 132.985Z" fill="url(#paint8_radial_1_2926)"/>
<path d="M45.2241 164.087C50.3765 164.087 54.5534 159.853 54.5534 154.63C54.5534 149.406 50.3765 145.172 45.2241 145.172C40.0716 145.172 35.8948 149.406 35.8948 154.63C35.8948 159.853 40.0716 164.087 45.2241 164.087Z" fill="#A56235" stroke="#DD8B52" stroke-miterlimit="10"/>
<path d="M49.1428 154.631C49.1428 156.822 47.3926 158.603 45.2239 158.603C43.0551 158.603 41.3049 156.822 41.3049 154.631C41.3049 152.44 43.0551 150.659 45.2239 150.659C47.3926 150.659 49.1428 152.44 49.1428 154.631Z" fill="#C97C47"/>
<path d="M112.455 128.824L113.553 127.727C113.865 127.415 114.329 127.316 114.739 127.468L118.869 129.056C119.244 129.198 119.52 129.546 119.591 129.957L119.752 130.902C119.886 131.696 120.733 132.115 121.411 131.731L122.348 131.205C122.722 130.991 123.186 131.018 123.543 131.277L126.808 133.631C127.191 133.908 127.37 134.398 127.263 134.862L127.013 135.915C126.844 136.646 127.379 137.359 128.119 137.359H129.618C129.992 137.359 130.34 137.547 130.554 137.859L132.312 140.463C132.561 140.838 132.579 141.328 132.356 141.721L131.848 142.613C131.455 143.3 131.83 144.183 132.588 144.352L133.355 144.522C133.792 144.62 134.131 144.959 134.229 145.405L135.095 149.356C135.184 149.757 135.059 150.176 134.773 150.453L134.319 150.908C133.783 151.434 133.873 152.335 134.497 152.736L134.765 152.906C135.13 153.137 135.327 153.566 135.291 154.012L134.872 158.337C134.827 158.819 134.497 159.22 134.051 159.345L133.846 159.408C133.114 159.622 132.784 160.505 133.195 161.165L133.712 161.994C133.89 162.28 133.935 162.627 133.846 162.949L132.882 166.347C132.758 166.802 132.365 167.132 131.91 167.185L131.063 167.274C130.349 167.355 129.885 168.077 130.09 168.782L130.358 169.674C130.483 170.111 130.358 170.574 130.037 170.878L126.344 174.32C125.943 174.695 125.345 174.722 124.917 174.401L124.801 174.312C124.114 173.794 123.142 174.213 123.008 175.079L122.883 175.899C122.829 176.292 122.58 176.622 122.232 176.782L117.745 178.914C117.281 179.137 116.737 179.012 116.407 178.62C115.845 177.951 114.784 178.138 114.48 178.976L114.355 179.324C114.204 179.752 113.811 180.047 113.374 180.082L108.379 180.439C107.942 180.475 107.523 180.234 107.309 179.841L107.023 179.315C106.631 178.593 105.658 178.504 105.15 179.146L104.588 179.85C104.285 180.234 103.767 180.386 103.312 180.207L99.0307 178.602C98.6203 178.45 98.326 178.058 98.2903 177.603L98.2278 176.845C98.1565 176.006 97.2734 175.516 96.5598 175.917L95.8462 176.309C95.4091 176.55 94.8739 176.479 94.526 176.122L91.1007 172.76C90.7885 172.447 90.6725 171.984 90.8063 171.564L91.0829 170.655C91.3415 169.816 90.6458 169.005 89.8073 169.147L89.2453 169.245C88.7636 169.335 88.273 169.085 88.05 168.639L85.7576 164.17C85.5613 163.787 85.5881 163.323 85.8289 162.966L86.5425 161.905C86.9885 161.236 86.6585 160.317 85.9003 160.112L84.7228 159.791C84.2501 159.666 83.9111 159.247 83.8754 158.748L83.5543 154.226C83.5186 153.744 83.7773 153.28 84.2054 153.084L85.1331 152.638C85.8468 152.299 86.0162 151.327 85.4543 150.747L84.2947 149.561C84.0092 149.267 83.9022 148.847 84.0003 148.446L85.1867 143.63C85.2937 143.193 85.6327 142.863 86.0608 142.773L87.8627 142.39C88.6655 142.22 89.0312 141.257 88.5585 140.57L87.8627 139.554C87.5505 139.099 87.5951 138.483 87.9608 138.082L90.6725 135.094C90.9312 134.809 91.3148 134.675 91.6983 134.737L93.5002 135.049C94.2673 135.183 94.9274 134.505 94.8115 133.72L94.6241 132.427C94.5528 131.928 94.8025 131.428 95.2396 131.205L99.2715 129.136C99.6283 128.958 100.048 128.975 100.378 129.189L101.502 129.921C102.126 130.322 102.947 130.019 103.179 129.305L103.517 128.289C103.651 127.869 104.008 127.575 104.427 127.504L108.959 126.808C109.458 126.728 109.94 126.995 110.154 127.468L110.609 128.467C110.939 129.189 111.867 129.368 112.429 128.815L112.455 128.824Z" fill="url(#paint9_radial_1_2926)"/>
<path opacity="0.06" d="M111.84 132.839L112.776 131.912C113.044 131.644 113.437 131.564 113.793 131.698L117.326 133.036C117.647 133.16 117.888 133.446 117.941 133.794L118.075 134.596C118.191 135.265 118.913 135.622 119.493 135.292L120.296 134.846C120.617 134.668 121.019 134.686 121.313 134.9L124.096 136.889C124.426 137.12 124.578 137.531 124.48 137.932L124.266 138.824C124.123 139.448 124.578 140.046 125.211 140.046H126.496C126.817 140.046 127.111 140.207 127.289 140.474L128.788 142.677C129.002 142.998 129.02 143.409 128.824 143.739L128.387 144.488C128.048 145.067 128.369 145.817 129.02 145.959L129.68 146.102C130.055 146.182 130.34 146.477 130.42 146.851L131.161 150.187C131.232 150.526 131.134 150.874 130.884 151.115L130.492 151.498C130.037 151.944 130.108 152.702 130.643 153.041L130.875 153.184C131.188 153.38 131.357 153.746 131.321 154.112L130.965 157.759C130.929 158.161 130.643 158.5 130.26 158.616L130.081 158.669C129.457 158.848 129.172 159.597 129.528 160.15L129.965 160.845C130.117 161.086 130.162 161.381 130.081 161.657L129.261 164.529C129.154 164.913 128.824 165.189 128.431 165.234L127.709 165.314C127.102 165.376 126.701 165.992 126.879 166.581L127.102 167.33C127.209 167.695 127.102 168.088 126.826 168.347L123.677 171.254C123.338 171.566 122.829 171.593 122.455 171.326L122.357 171.254C121.768 170.817 120.938 171.174 120.831 171.905L120.724 172.592C120.68 172.922 120.466 173.199 120.171 173.341L116.345 175.143C115.952 175.33 115.488 175.223 115.203 174.893C114.721 174.322 113.82 174.492 113.561 175.196L113.454 175.491C113.321 175.856 112.991 176.106 112.616 176.133L108.352 176.436C107.977 176.463 107.621 176.267 107.433 175.928L107.192 175.482C106.862 174.866 106.024 174.795 105.587 175.339L105.105 175.937C104.847 176.267 104.409 176.383 104.017 176.24L100.369 174.884C100.012 174.75 99.771 174.42 99.7353 174.046L99.6818 173.413C99.6193 172.708 98.87 172.289 98.2545 172.628L97.648 172.958C97.2823 173.163 96.8184 173.1 96.5151 172.806L93.5893 169.961C93.3217 169.702 93.2236 169.31 93.3396 168.953L93.5804 168.186C93.8034 167.481 93.2058 166.786 92.4922 166.919L92.0105 167.009C91.6001 167.08 91.1809 166.875 90.9847 166.5L89.0312 162.727C88.8617 162.406 88.8884 162.014 89.0936 161.711L89.7002 160.81C90.0837 160.248 89.7983 159.472 89.1471 159.294L88.1392 159.026C87.7377 158.919 87.4523 158.562 87.4166 158.143L87.1401 154.326C87.1133 153.915 87.3364 153.532 87.7021 153.353L88.496 152.979C89.1115 152.693 89.2542 151.873 88.7725 151.382L87.7824 150.383C87.5415 150.134 87.4434 149.777 87.5237 149.447L88.5406 145.38C88.6298 145.014 88.9241 144.729 89.2809 144.657L90.8241 144.336C91.511 144.193 91.8232 143.382 91.4218 142.802L90.8241 141.946C90.5565 141.562 90.5922 141.045 90.9044 140.706L93.2236 138.182C93.4466 137.941 93.7767 137.825 94.0978 137.879L95.6321 138.146C96.2832 138.262 96.8541 137.691 96.756 137.022L96.5954 135.934C96.533 135.506 96.747 135.096 97.1217 134.9L100.565 133.151C100.868 133 101.225 133.018 101.51 133.196L102.474 133.811C103.009 134.15 103.705 133.892 103.91 133.294L104.195 132.429C104.311 132.081 104.615 131.823 104.971 131.769L108.843 131.18C109.271 131.118 109.681 131.341 109.869 131.733L110.252 132.572C110.538 133.187 111.322 133.33 111.804 132.866L111.84 132.839Z" fill="url(#paint10_radial_1_2926)"/>
<path d="M109.976 163.046C114.907 163.046 118.905 158.933 118.905 153.86C118.905 148.786 114.907 144.673 109.976 144.673C105.044 144.673 101.047 148.786 101.047 153.86C101.047 158.933 105.044 163.046 109.976 163.046Z" fill="#A56235" stroke="#DD8B52" stroke-miterlimit="10"/>
<path d="M113.722 153.86C113.722 155.992 112.045 157.713 109.975 157.713C107.906 157.713 106.229 155.983 106.229 153.86C106.229 151.738 107.906 150.007 109.975 150.007C112.045 150.007 113.722 151.738 113.722 153.86Z" fill="#C97C47"/>
<path d="M175.484 64.9261L125.808 20.7386H121.893L116.606 4.20003C115.941 2.11586 117.526 0 119.737 0H136.341L180.453 62.8182L178.52 64.8073C177.703 65.6473 176.348 65.7027 175.476 64.9182L175.484 64.9261Z" fill="#AD762D"/>
<g style="mix-blend-mode:multiply" opacity="0.23">
<path d="M171.173 59.6812L126.64 19.9552L123.081 19.8998L118.508 5.20757C117.93 3.36114 119.396 1.50679 121.409 1.53849L136.491 1.76037L175.722 57.8823L173.939 59.6178C173.186 60.3548 171.957 60.3785 171.173 59.6732V59.6812Z" fill="#AD762D"/>
</g>
<path d="M148.015 15.7936L159.602 20.5801C160.703 21.0318 160.854 22.5058 159.871 23.1635L154.735 26.6345C154.49 26.8009 154.165 26.7375 153.998 26.4918L147.381 16.5544C147.095 16.1265 147.547 15.6034 148.023 15.7936H148.015Z" fill="#C9933D"/>
<path d="M189.647 63.9932L172.488 41.0356" stroke="black" stroke-width="2" stroke-miterlimit="10"/>
<path d="M160.188 22.6488L174.042 39.8531C174.715 40.6852 174.596 41.8897 173.78 42.5871C172.932 43.3082 171.64 43.2052 170.927 42.3493L156.756 25.3352C156.725 25.2956 156.725 25.2322 156.772 25.1926L160.045 22.625C160.093 22.5933 160.156 22.6013 160.188 22.6409V22.6488Z" fill="url(#paint11_linear_1_2926)"/>
<path d="M177.069 59.8668L190.542 62.8623C191.874 63.1555 192.69 64.471 192.365 65.7706H177.608C175.777 65.7706 174.295 64.3125 174.295 62.5136V62.0539C174.295 60.6196 175.65 59.5577 177.069 59.8668Z" fill="#C9933D"/>
<path d="M187.166 63.9886C187.166 65.6052 188.497 66.9128 190.138 66.9128C191.779 66.9128 193.11 65.6052 193.11 63.9886C193.11 62.372 191.779 61.0645 190.138 61.0645C188.497 61.0645 187.166 62.372 187.166 63.9886Z" fill="#474747"/>
<path d="M189.797 63.6489L198 74.0222L190.265 95.6405C189.536 97.685 187.562 99.056 185.359 99.056H154.26L159.681 91.6465L170.673 88.9838L189.797 63.6569V63.6489Z" fill="url(#paint12_linear_1_2926)"/>
<path d="M190.281 65.3908C191.012 65.3908 191.604 64.8089 191.604 64.0911C191.604 63.3734 191.012 62.7915 190.281 62.7915C189.55 62.7915 188.957 63.3734 188.957 64.0911C188.957 64.8089 189.55 65.3908 190.281 65.3908Z" fill="black"/>
<path d="M175.769 62.8163C175.769 63.5216 176.348 64.0842 177.061 64.0842C177.774 64.0842 178.353 63.5136 178.353 62.8163C178.353 62.1189 177.774 61.5483 177.061 61.5483C176.348 61.5483 175.769 62.1189 175.769 62.8163Z" fill="black"/>
<path d="M85.1582 96.2819H74.6174C74.6174 96.2819 70.3773 36.2532 94.7955 24.2871L124.334 9.8881C127.416 7.9862 130.531 11.6474 127.393 14.1674C127.393 14.1674 93.5988 33.1705 85.1661 96.274L85.1582 96.2819Z" fill="#C9933D"/>
<g style="mix-blend-mode:multiply" opacity="0.33">
<path d="M85.2058 94.5094H75.3387C75.3387 94.5094 71.3681 36.9452 94.2249 25.4704L94.534 25.3199C99.1149 23.0297 103.696 20.7474 108.277 18.4572C111.447 16.8723 114.593 15.2477 117.755 13.6707C119.103 12.9971 120.458 12.3315 121.821 11.6737C123.145 11.0398 124.476 9.89863 126.006 9.9541C126.64 9.97787 127.29 10.2235 127.694 10.7149C127.892 10.9526 128.027 11.2458 128.09 11.5469C128.328 12.6722 127.615 13.5836 126.743 14.2175C126.347 14.5028 125.776 14.907 125.285 15.01C124.484 15.1764 124.468 14.3681 123.834 14.3522C123.184 14.3443 122.059 15.6915 121.607 16.0957C117.169 20.161 112.905 24.4482 109.141 29.1237C105.431 33.7358 101.817 38.7045 99.004 43.8951L99.3289 46.4389C96.1904 52.5725 93.266 60.0929 91.1737 66.6387C88.1541 76.0768 86.4739 84.6909 85.19 94.4936L85.2058 94.5094Z" fill="#C9933D"/>
</g>
<path d="M125.792 13.8278C126.724 13.8278 127.48 13.0828 127.48 12.1637C127.48 11.2446 126.724 10.4995 125.792 10.4995C124.86 10.4995 124.104 11.2446 124.104 12.1637C124.104 13.0828 124.86 13.8278 125.792 13.8278Z" fill="#474747"/>
<path opacity="0.62" d="M108.752 108.331L104.536 76.9259C104.536 76.9259 103.331 71.3946 98.9165 70.9983C94.5021 70.6021 76.6303 71.7908 76.6303 71.7908C76.6303 71.7908 71.4075 72.3851 70.8051 77.5203C70.2028 82.6554 69.4023 97.4665 69.4023 97.4665C69.4023 97.4665 100.517 96.8721 108.744 108.331H108.752Z" fill="#ADCEFF"/>
<path opacity="0.19" d="M108.522 108.552L104.258 81.0062C104.258 81.0062 98.9087 73.4937 94.5735 72.5824C88.1143 71.2273 79.8164 72.0515 79.8164 72.0515C79.8164 72.0515 104.132 74.0643 108.522 108.552Z" fill="white"/>
<g style="mix-blend-mode:multiply" opacity="0.31">
<path d="M108.72 108.585L102.626 96.2859C102.626 96.2859 99.4634 88.0284 95.049 87.6322C90.6345 87.236 76.6066 72.0366 76.6066 72.0366C76.6066 72.0366 71.1935 72.6072 70.7814 77.7661C70.179 85.3816 81.3222 94.6455 81.3222 94.6455C81.3222 94.6455 100.494 97.1259 108.72 108.585Z" fill="#ADCEFF"/>
</g>
<path d="M107.135 96.2826L94.098 94.2064L92.3068 71.2251L89.1129 71.344L90.0956 93.4456C90.0956 93.4456 73.0085 91.3298 69.1567 92.5343L68.8159 97.3525C68.8159 97.3525 97.3157 96.6789 108.76 108.328L107.143 96.2826H107.135Z" fill="url(#paint13_linear_1_2926)"/>
<path d="M105.629 85.0703H107.666C109.164 85.0703 110.416 86.1956 110.543 87.6617L111.954 103.21C112.12 105.056 110.004 106.427 108.53 106.649H108.752" stroke="black" stroke-miterlimit="10"/>
<path d="M107.127 96.2986L104.528 76.9389C104.528 76.9389 104.068 72.4615 99.9945 71.2332C95.9208 70.0049 76.1153 71.8988 76.1153 71.8988C76.1153 71.8988 71.4868 72.303 70.6467 77.8344C69.8621 83.0091 69.1567 93.2398 69.1567 93.2398L70.3376 92.796C70.3376 92.796 71.043 79.4034 71.1539 78.5951C71.2808 77.7234 71.7959 72.9528 76.1232 72.5249C78.794 72.2634 89.1129 71.5502 89.1129 71.5502C89.1129 71.5502 91.7124 71.463 92.3148 71.4234C94.1059 71.3203 98.6947 71.5185 99.3525 71.6532C100.01 71.78 102.927 72.4456 103.68 77.1132C104.433 81.7808 106.311 96.2986 106.311 96.2986H107.127Z" fill="#474747"/>
<defs>
<linearGradient id="paint0_linear_1_2926" x1="82.4243" y1="118.738" x2="127.489" y2="118.738" gradientUnits="userSpaceOnUse">
<stop offset="0.12" stop-color="#C9933D"/>
<stop offset="0.19" stop-color="#8E682B"/>
<stop offset="0.34"/>
</linearGradient>
<linearGradient id="paint1_linear_1_2926" x1="60.8038" y1="65.9328" x2="58.5967" y2="169.335" gradientUnits="userSpaceOnUse">
<stop offset="0.13" stop-color="#C9933D"/>
<stop offset="0.2" stop-color="#C5903B"/>
<stop offset="0.27" stop-color="#B98738"/>
<stop offset="0.34" stop-color="#A57932"/>
<stop offset="0.41" stop-color="#8A6529"/>
<stop offset="0.48" stop-color="#664B1F"/>
<stop offset="0.55" stop-color="#3B2B11"/>
<stop offset="0.62" stop-color="#080602"/>
<stop offset="0.63"/>
</linearGradient>
<linearGradient id="paint2_linear_1_2926" x1="60.8769" y1="68.6683" x2="59.1414" y2="149.956" gradientUnits="userSpaceOnUse">
<stop offset="0.13" stop-color="#FFF8B1"/>
<stop offset="0.19" stop-color="#FBF4AE"/>
<stop offset="0.25" stop-color="#EFE8A6"/>
<stop offset="0.32" stop-color="#DBD598"/>
<stop offset="0.38" stop-color="#C0BA85"/>
<stop offset="0.44" stop-color="#9C986C"/>
<stop offset="0.5" stop-color="#706D4E"/>
<stop offset="0.57" stop-color="#3D3B2A"/>
<stop offset="0.63"/>
</linearGradient>
<linearGradient id="paint3_linear_1_2926" x1="60.1513" y1="115.69" x2="59.8872" y2="128.114" gradientUnits="userSpaceOnUse">
<stop stop-color="#C9933D"/>
<stop offset="0.08" stop-color="#C48F3B"/>
<stop offset="0.17" stop-color="#B88637"/>
<stop offset="0.26" stop-color="#A27731"/>
<stop offset="0.36" stop-color="#856128"/>
<stop offset="0.45" stop-color="#5E451C"/>
<stop offset="0.54" stop-color="#31230E"/>
<stop offset="0.63"/>
</linearGradient>
<linearGradient id="paint4_linear_1_2926" x1="61.1727" y1="77.6057" x2="55.6929" y2="203.572" gradientUnits="userSpaceOnUse">
<stop offset="0.39" stop-color="#C9933D"/>
<stop offset="0.42" stop-color="#C48F3B"/>
<stop offset="0.45" stop-color="#B88637"/>
<stop offset="0.48" stop-color="#A27731"/>
<stop offset="0.51" stop-color="#856128"/>
<stop offset="0.55" stop-color="#5E451C"/>
<stop offset="0.58" stop-color="#31230E"/>
<stop offset="0.61"/>
</linearGradient>
<linearGradient id="paint5_linear_1_2926" x1="60.8179" y1="89.886" x2="56.3592" y2="193.373" gradientUnits="userSpaceOnUse">
<stop offset="0.39" stop-color="#C9933D"/>
<stop offset="0.42" stop-color="#C48F3B"/>
<stop offset="0.45" stop-color="#B88637"/>
<stop offset="0.48" stop-color="#A27731"/>
<stop offset="0.51" stop-color="#856128"/>
<stop offset="0.55" stop-color="#5E451C"/>
<stop offset="0.58" stop-color="#31230E"/>
<stop offset="0.61"/>
</linearGradient>
<linearGradient id="paint6_linear_1_2926" x1="60.8179" y1="84.142" x2="55.9639" y2="192.111" gradientUnits="userSpaceOnUse">
<stop offset="0.39" stop-color="#C9933D"/>
<stop offset="0.42" stop-color="#C48F3B"/>
<stop offset="0.45" stop-color="#B88637"/>
<stop offset="0.48" stop-color="#A27731"/>
<stop offset="0.51" stop-color="#856128"/>
<stop offset="0.55" stop-color="#5E451C"/>
<stop offset="0.58" stop-color="#31230E"/>
<stop offset="0.61"/>
</linearGradient>
<radialGradient id="paint7_radial_1_2926" cx="0" cy="0" r="1" gradientUnits="userSpaceOnUse" gradientTransform="translate(43.9307 154.718) scale(26.9185 27.4283)">
<stop stop-color="white"/>
<stop offset="0.02" stop-color="#FDFDFD"/>
<stop offset="0.03" stop-color="#F6F6F6"/>
<stop offset="0.04" stop-color="#D9D9D9"/>
<stop offset="0.05" stop-color="#A8A8A8"/>
<stop offset="0.06" stop-color="#1C1C1C"/>
<stop offset="0.22" stop-color="#1E1E1E"/>
<stop offset="0.33" stop-color="#282828"/>
<stop offset="0.43" stop-color="#373737"/>
<stop offset="0.49" stop-color="#474747"/>
<stop offset="0.72" stop-color="#454545"/>
<stop offset="0.75" stop-color="#444444"/>
<stop offset="0.81" stop-color="#3D3D3D"/>
<stop offset="0.9" stop-color="#2B2B2B"/>
<stop offset="0.99" stop-color="#131313"/>
<stop offset="1"/>
</radialGradient>
<radialGradient id="paint8_radial_1_2926" cx="0" cy="0" r="1" gradientUnits="userSpaceOnUse" gradientTransform="translate(45.116 154.333) scale(39.4959 39.4918)">
<stop stop-color="#1C1C1C"/>
<stop offset="0.21" stop-color="#202020" stop-opacity="0.99"/>
<stop offset="0.28" stop-color="#313131" stop-opacity="0.95"/>
<stop offset="0.34" stop-color="#4E4E4E" stop-opacity="0.88"/>
<stop offset="0.38" stop-color="#787878" stop-opacity="0.78"/>
<stop offset="0.42" stop-color="#AEAEAE" stop-opacity="0.66"/>
<stop offset="0.45" stop-color="#F0F0F0" stop-opacity="0.5"/>
<stop offset="0.46" stop-color="white" stop-opacity="0.47"/>
<stop offset="0.5" stop-color="#F7F7F7" stop-opacity="0.49"/>
<stop offset="0.51" stop-color="#DEDEDE" stop-opacity="0.56"/>
<stop offset="0.52" stop-color="#B1B1B1" stop-opacity="0.69"/>
<stop offset="0.53" stop-color="#474747"/>
<stop offset="0.73" stop-color="#454545"/>
<stop offset="0.75" stop-color="#444444"/>
<stop offset="0.81" stop-color="#3D3D3D"/>
<stop offset="0.9" stop-color="#2B2B2B"/>
<stop offset="0.99" stop-color="#131313"/>
<stop offset="1"/>
</radialGradient>
<radialGradient id="paint9_radial_1_2926" cx="0" cy="0" r="1" gradientUnits="userSpaceOnUse" gradientTransform="translate(109.339 154.427) scale(25.8369 26.7354)">
<stop stop-color="white"/>
<stop offset="0.02" stop-color="#FDFDFD"/>
<stop offset="0.03" stop-color="#F6F6F6"/>
<stop offset="0.04" stop-color="#D9D9D9"/>
<stop offset="0.05" stop-color="#A8A8A8"/>
<stop offset="0.06" stop-color="#1C1C1C"/>
<stop offset="0.22" stop-color="#1E1E1E"/>
<stop offset="0.33" stop-color="#282828"/>
<stop offset="0.43" stop-color="#373737"/>
<stop offset="0.49" stop-color="#474747"/>
<stop offset="0.72" stop-color="#454545"/>
<stop offset="0.75" stop-color="#444444"/>
<stop offset="0.81" stop-color="#3D3D3D"/>
<stop offset="0.9" stop-color="#2B2B2B"/>
<stop offset="0.99" stop-color="#131313"/>
<stop offset="1"/>
</radialGradient>
<radialGradient id="paint10_radial_1_2926" cx="0" cy="0" r="1" gradientUnits="userSpaceOnUse" gradientTransform="translate(111.631 154.234) scale(38.0672 38.5776)">
<stop stop-color="#1C1C1C"/>
<stop offset="0.21" stop-color="#202020" stop-opacity="0.99"/>
<stop offset="0.28" stop-color="#313131" stop-opacity="0.95"/>
<stop offset="0.34" stop-color="#4E4E4E" stop-opacity="0.88"/>
<stop offset="0.38" stop-color="#787878" stop-opacity="0.78"/>
<stop offset="0.42" stop-color="#AEAEAE" stop-opacity="0.66"/>
<stop offset="0.45" stop-color="#F0F0F0" stop-opacity="0.5"/>
<stop offset="0.46" stop-color="white" stop-opacity="0.47"/>
<stop offset="0.5" stop-color="#F7F7F7" stop-opacity="0.49"/>
<stop offset="0.51" stop-color="#DEDEDE" stop-opacity="0.56"/>
<stop offset="0.52" stop-color="#B1B1B1" stop-opacity="0.69"/>
<stop offset="0.53" stop-color="#474747"/>
<stop offset="0.73" stop-color="#454545"/>
<stop offset="0.75" stop-color="#444444"/>
<stop offset="0.81" stop-color="#3D3D3D"/>
<stop offset="0.9" stop-color="#2B2B2B"/>
<stop offset="0.99" stop-color="#131313"/>
<stop offset="1"/>
</radialGradient>
<linearGradient id="paint11_linear_1_2926" x1="174.145" y1="26.6666" x2="155.039" y2="38.6719" gradientUnits="userSpaceOnUse">
<stop offset="0.31" stop-color="#232322"/>
<stop offset="0.33" stop-color="#323030"/>
<stop offset="0.35" stop-color="#4F4A4A"/>
<stop offset="0.38" stop-color="#645D5C"/>
<stop offset="0.41" stop-color="#706868"/>
<stop offset="0.43" stop-color="#756C6C"/>
<stop offset="0.47" stop-color="#5F5858"/>
<stop offset="0.53" stop-color="#3D3838"/>
<stop offset="0.6" stop-color="#221F1F"/>
<stop offset="0.66" stop-color="#0F0E0E"/>
<stop offset="0.73" stop-color="#030303"/>
<stop offset="0.8"/>
</linearGradient>
<linearGradient id="paint12_linear_1_2926" x1="196.434" y1="90.854" x2="159.981" y2="80.5271" gradientUnits="userSpaceOnUse">
<stop offset="0.15" stop-color="#756C6C"/>
<stop offset="0.21" stop-color="#6B6363"/>
<stop offset="0.75" stop-color="#1E1C1C"/>
<stop offset="1"/>
</linearGradient>
<linearGradient id="paint13_linear_1_2926" x1="90.3822" y1="71.1617" x2="89.5994" y2="107.903" gradientUnits="userSpaceOnUse">
<stop offset="0.15" stop-color="#756C6C"/>
<stop offset="0.21" stop-color="#6B6363"/>
<stop offset="0.75" stop-color="#1E1C1C"/>
<stop offset="1"/>
</linearGradient>
</defs>
</svg>
