<svg width="360" height="669" viewBox="0 0 360 669" fill="none" xmlns="http://www.w3.org/2000/svg">
<rect width="360" height="669" fill="#FFFBFA"/>
<mask id="mask0_82_3240" style="mask-type:alpha" maskUnits="userSpaceOnUse" x="0" y="0" width="360" height="669">
<rect x="0.5" width="359.5" height="669" fill="#EFEFEF"/>
</mask>
<g mask="url(#mask0_82_3240)">
<g filter="url(#filter0_f_82_3240)">
<ellipse cx="73.5" cy="439.489" rx="186.5" ry="89.5256" fill="#EA5F24"/>
</g>
<path d="M27.1713 312.563L14.6541 312.24L11.1638 326.677C8.12365 327.418 5.23178 328.541 2.55157 330L-9.72834 321.61L-18.8106 330.238L-11.0665 342.927C-12.6568 345.535 -13.9302 348.362 -14.8275 351.353L-29.4359 354.11L-29.7583 366.619L-15.3108 370.123C-14.5707 373.159 -13.4492 376.05 -11.992 378.742L-20.3811 391.018L-11.7568 400.093L0.927212 392.36C3.53643 393.945 6.3648 395.22 9.35967 396.113L12.1064 410.72L24.6235 411.043L28.1229 396.596C31.1614 395.861 34.0508 394.739 36.7422 393.286L49.0221 401.676L58.0994 393.05L50.3583 380.358C51.9505 377.751 53.2253 374.926 54.1179 371.929L68.7166 369.17L69.039 356.661L54.604 353.165C53.8656 350.123 52.7396 347.233 51.2847 344.547L59.6719 332.27L51.0444 323.184L38.3591 330.929C35.7526 329.335 32.9245 328.066 29.9213 327.174L27.1713 312.563ZM45.6594 362.313C45.2881 376.689 33.3344 388.033 18.9716 387.661C4.59215 387.289 -6.75002 375.342 -6.37927 360.968C-6.00658 346.595 5.93739 335.248 20.3169 335.621C34.6802 335.991 46.0321 347.94 45.6594 362.313Z" fill="#FFE5DA"/>
<path d="M39.7528 362.16C39.4651 373.272 30.2251 382.039 19.1235 381.752C8.00962 381.464 -0.757537 372.23 -0.4704 361.12C-0.183263 350.01 9.04893 341.241 20.1633 341.527C31.2649 341.814 40.0394 351.052 39.7528 362.16Z" fill="#FFE5DA"/>
<path d="M15.4667 430.112L5.54895 427.38L-0.0875943 438.202C-2.65828 438.192 -5.18654 438.516 -7.61266 439.149L-15.7464 430.032L-24.695 435.118L-21.0282 446.766C-22.8114 448.531 -24.3848 450.533 -25.6921 452.742L-37.8879 452.054L-40.618 461.965L-29.7886 467.614C-29.7997 470.181 -29.4754 472.708 -28.8449 475.143L-37.9602 483.275L-32.8754 492.216L-21.2315 488.555C-19.4631 490.335 -17.461 491.911 -15.2481 493.214L-15.9438 505.406L-6.02601 508.138L-0.380464 497.309C2.18879 497.324 4.71319 496.999 7.14733 496.372L15.2811 505.49L24.2254 500.404L20.5609 488.752C22.3454 486.988 23.9198 484.987 25.2256 482.773L37.4126 483.458L40.1427 473.547L29.321 467.906C29.3345 465.335 29.0063 462.807 28.377 460.377L37.491 452.246L32.4074 443.295L20.7601 446.963C18.9964 445.176 16.9928 443.605 14.7734 442.301L15.4667 430.112ZM18.35 472.879C15.5219 483.146 4.90809 489.172 -5.35139 486.346C-15.6213 483.517 -21.6475 472.909 -18.8189 462.64C-15.9911 452.374 -5.38215 446.346 4.88772 449.174C15.1455 452.001 21.1775 462.614 18.35 472.879Z" fill="#FFE5DA"/>
<path d="M-6.14442 466.132C-7.04337 469.395 -5.12688 472.769 -1.86338 473.668C1.40011 474.567 4.77381 472.65 5.67276 469.387C6.5717 466.123 4.65521 462.75 1.39172 461.851C-1.87142 460.951 -5.24548 462.868 -6.14442 466.132Z" fill="#FFE5DA"/>
<path d="M77.3593 423.531L71.8402 421.677L68.3186 427.617C66.8656 427.53 65.427 427.636 64.0367 427.917L59.7257 422.512L54.5119 425.106L56.2211 431.803C55.1592 432.745 54.2074 433.827 53.3986 435.034L46.5303 434.266L44.6784 439.78L50.6207 443.309C50.5354 444.759 50.6395 446.197 50.9194 447.592L45.5159 451.902L48.1106 457.113L54.8031 455.407C55.7462 456.468 56.8291 457.422 58.0394 458.226L57.2658 465.093L62.7848 466.946L66.3126 461.003C67.7631 461.092 69.2001 460.986 70.5948 460.708L74.9058 466.114L80.118 463.519L78.4109 456.821C79.4739 455.88 80.4257 454.799 81.2333 453.589L88.0969 454.357L89.9487 448.843L84.0103 445.318C84.0982 443.865 83.9908 442.426 83.7116 441.035L89.1156 436.723L86.5222 431.508L79.8268 433.217C78.8866 432.153 77.8028 431.202 76.5893 430.397L77.3593 423.531ZM78.5815 448.097C76.4903 454.324 69.7503 457.674 63.5287 455.584C57.3008 453.492 53.9499 446.755 56.0411 440.529C58.1302 434.304 64.8691 430.952 71.097 433.043C77.319 435.132 80.6706 441.872 78.5815 448.097Z" fill="#FFE5DA"/>
</g>
<defs>
<filter id="filter0_f_82_3240" x="-813" y="-350.036" width="1773" height="1579.05" filterUnits="userSpaceOnUse" color-interpolation-filters="sRGB">
<feFlood flood-opacity="0" result="BackgroundImageFix"/>
<feBlend mode="normal" in="SourceGraphic" in2="BackgroundImageFix" result="shape"/>
<feGaussianBlur stdDeviation="350" result="effect1_foregroundBlur_82_3240"/>
</filter>
</defs>
</svg>
